<mxfile host="Electron" agent="Mozilla/5.0 (Windows NT 10.0; Win64; x64) AppleWebKit/537.36 (KHTML, like Gecko) draw.io/28.0.6 Chrome/138.0.7204.100 Electron/37.2.3 Safari/537.36" version="28.0.6" pages="2">
  <diagram name="Page-1" id="vsBYvRmTbIgRAkcGOMrb">
    <mxGraphModel dx="1041" dy="1482" grid="1" gridSize="10" guides="1" tooltips="1" connect="1" arrows="1" fold="1" page="1" pageScale="1" pageWidth="850" pageHeight="1100" math="0" shadow="0">
      <root>
        <mxCell id="0" />
        <mxCell id="1" parent="0" />
        <mxCell id="W71XtA_5Icc1mvrdMgkB-1" value="Version/Date: v1.1 /&amp;nbsp; 20 AUG 2025&lt;div&gt;Scope: Identity Services Ecosystem Architectural Diagrams&lt;/div&gt;&lt;div&gt;https://github.com/integrateddefense/lab_infra&lt;/div&gt;" style="text;html=1;align=left;verticalAlign=middle;whiteSpace=wrap;rounded=0;spacingBottom=0;" parent="1" vertex="1">
          <mxGeometry x="2200" y="990" width="330" height="100" as="geometry" />
        </mxCell>
        <mxCell id="W71XtA_5Icc1mvrdMgkB-3" value="" style="rounded=0;whiteSpace=wrap;html=1;" parent="1" vertex="1">
          <mxGeometry x="25" y="230" width="400" height="180" as="geometry" />
        </mxCell>
        <mxCell id="W71XtA_5Icc1mvrdMgkB-4" value="VLAN 20 - Services" style="text;html=1;align=center;verticalAlign=middle;whiteSpace=wrap;rounded=0;container=0;" parent="1" vertex="1">
          <mxGeometry x="25" y="200" width="120" height="30" as="geometry" />
        </mxCell>
        <mxCell id="W71XtA_5Icc1mvrdMgkB-5" value="" style="rounded=0;whiteSpace=wrap;html=1;" parent="1" vertex="1">
          <mxGeometry x="425" y="230" width="400" height="180" as="geometry" />
        </mxCell>
        <mxCell id="W71XtA_5Icc1mvrdMgkB-6" value="VLAN 21 - Protected Services" style="text;html=1;align=right;verticalAlign=middle;whiteSpace=wrap;rounded=0;container=0;" parent="1" vertex="1">
          <mxGeometry x="615" y="200" width="210" height="30" as="geometry" />
        </mxCell>
        <mxCell id="W71XtA_5Icc1mvrdMgkB-8" value="RODC&lt;span style=&quot;color: rgba(0, 0, 0, 0); font-family: monospace; font-size: 0px; text-align: start; text-wrap-mode: nowrap;&quot;&gt;%3CmxGraphModel%3E%3Croot%3E%3CmxCell%20id%3D%220%22%2F%3E%3CmxCell%20id%3D%221%22%20parent%3D%220%22%2F%3E%3CmxCell%20id%3D%222%22%20value%3D%22%22%20style%3D%22rounded%3D0%3BwhiteSpace%3Dwrap%3Bhtml%3D1%3B%22%20vertex%3D%221%22%20parent%3D%221%22%3E%3CmxGeometry%20x%3D%2230%22%20y%3D%2280%22%20width%3D%22400%22%20height%3D%22460%22%20as%3D%22geometry%22%2F%3E%3C%2FmxCell%3E%3CmxCell%20id%3D%223%22%20value%3D%22VLAN%2020%20-%20Services%22%20style%3D%22text%3Bhtml%3D1%3Balign%3Dcenter%3BverticalAlign%3Dmiddle%3BwhiteSpace%3Dwrap%3Brounded%3D0%3Bcontainer%3D0%3B%22%20vertex%3D%221%22%20parent%3D%221%22%3E%3CmxGeometry%20x%3D%2230%22%20y%3D%2250%22%20width%3D%22120%22%20height%3D%2230%22%20as%3D%22geometry%22%2F%3E%3C%2FmxCell%3E%3C%2Froot%3E%3C%2FmxGraphModel%3E&lt;/span&gt;" style="rounded=0;whiteSpace=wrap;html=1;" parent="1" vertex="1">
          <mxGeometry x="165" y="260" width="120" height="60" as="geometry" />
        </mxCell>
        <mxCell id="W71XtA_5Icc1mvrdMgkB-9" value="RWDC" style="rounded=0;whiteSpace=wrap;html=1;" parent="1" vertex="1">
          <mxGeometry x="565" y="280" width="120" height="60" as="geometry" />
        </mxCell>
        <mxCell id="W71XtA_5Icc1mvrdMgkB-11" value="" style="endArrow=classic;startArrow=classic;html=1;rounded=0;entryX=0;entryY=0.5;entryDx=0;entryDy=0;exitX=1;exitY=0.5;exitDx=0;exitDy=0;" parent="1" source="W71XtA_5Icc1mvrdMgkB-8" target="W71XtA_5Icc1mvrdMgkB-9" edge="1">
          <mxGeometry width="50" height="50" relative="1" as="geometry">
            <mxPoint x="375" y="350" as="sourcePoint" />
            <mxPoint x="675" y="400" as="targetPoint" />
          </mxGeometry>
        </mxCell>
        <mxCell id="W71XtA_5Icc1mvrdMgkB-12" value="Other VLANs" style="rounded=0;whiteSpace=wrap;html=1;" parent="1" vertex="1">
          <mxGeometry x="160" y="460" width="120" height="60" as="geometry" />
        </mxCell>
        <mxCell id="W71XtA_5Icc1mvrdMgkB-13" value="VLAN99 - MGMT" style="rounded=0;whiteSpace=wrap;html=1;" parent="1" vertex="1">
          <mxGeometry x="530" y="460" width="120" height="60" as="geometry" />
        </mxCell>
        <mxCell id="W71XtA_5Icc1mvrdMgkB-14" value="" style="endArrow=classic;startArrow=classic;html=1;rounded=0;entryX=0.5;entryY=1;entryDx=0;entryDy=0;exitX=0.5;exitY=0;exitDx=0;exitDy=0;" parent="1" source="W71XtA_5Icc1mvrdMgkB-12" target="W71XtA_5Icc1mvrdMgkB-9" edge="1">
          <mxGeometry width="50" height="50" relative="1" as="geometry">
            <mxPoint x="500" y="380" as="sourcePoint" />
            <mxPoint x="800" y="310" as="targetPoint" />
          </mxGeometry>
        </mxCell>
        <mxCell id="W71XtA_5Icc1mvrdMgkB-15" value="" style="endArrow=classic;startArrow=classic;html=1;rounded=0;exitX=0.5;exitY=0;exitDx=0;exitDy=0;entryX=0.5;entryY=1;entryDx=0;entryDy=0;" parent="1" source="W71XtA_5Icc1mvrdMgkB-13" edge="1" target="W71XtA_5Icc1mvrdMgkB-9">
          <mxGeometry width="50" height="50" relative="1" as="geometry">
            <mxPoint x="510" y="680" as="sourcePoint" />
            <mxPoint x="630" y="270" as="targetPoint" />
          </mxGeometry>
        </mxCell>
        <mxCell id="W71XtA_5Icc1mvrdMgkB-16" value="Data Flows" style="shape=table;startSize=30;container=1;collapsible=0;childLayout=tableLayout;strokeColor=default;fontSize=16;" parent="1" vertex="1">
          <mxGeometry x="10" y="560" width="830" height="520" as="geometry" />
        </mxCell>
        <mxCell id="W71XtA_5Icc1mvrdMgkB-17" value="" style="shape=tableRow;horizontal=0;startSize=0;swimlaneHead=0;swimlaneBody=0;strokeColor=inherit;top=0;left=0;bottom=0;right=0;collapsible=0;dropTarget=0;fillColor=none;points=[[0,0.5],[1,0.5]];portConstraint=eastwest;fontSize=16;" parent="W71XtA_5Icc1mvrdMgkB-16" vertex="1">
          <mxGeometry y="30" width="830" height="40" as="geometry" />
        </mxCell>
        <mxCell id="W71XtA_5Icc1mvrdMgkB-18" value="ID" style="shape=partialRectangle;html=1;whiteSpace=wrap;connectable=0;strokeColor=inherit;overflow=hidden;fillColor=none;top=0;left=0;bottom=0;right=0;pointerEvents=1;fontSize=16;" parent="W71XtA_5Icc1mvrdMgkB-17" vertex="1">
          <mxGeometry width="60" height="40" as="geometry">
            <mxRectangle width="60" height="40" as="alternateBounds" />
          </mxGeometry>
        </mxCell>
        <mxCell id="W71XtA_5Icc1mvrdMgkB-19" value="Port/Proto" style="shape=partialRectangle;html=1;whiteSpace=wrap;connectable=0;strokeColor=inherit;overflow=hidden;fillColor=none;top=0;left=0;bottom=0;right=0;pointerEvents=1;fontSize=16;" parent="W71XtA_5Icc1mvrdMgkB-17" vertex="1">
          <mxGeometry x="60" width="150" height="40" as="geometry">
            <mxRectangle width="150" height="40" as="alternateBounds" />
          </mxGeometry>
        </mxCell>
        <mxCell id="W71XtA_5Icc1mvrdMgkB-20" value="Description" style="shape=partialRectangle;html=1;whiteSpace=wrap;connectable=0;strokeColor=inherit;overflow=hidden;fillColor=none;top=0;left=0;bottom=0;right=0;pointerEvents=1;fontSize=16;" parent="W71XtA_5Icc1mvrdMgkB-17" vertex="1">
          <mxGeometry x="210" width="250" height="40" as="geometry">
            <mxRectangle width="250" height="40" as="alternateBounds" />
          </mxGeometry>
        </mxCell>
        <mxCell id="W71XtA_5Icc1mvrdMgkB-49" value="Controls" style="shape=partialRectangle;html=1;whiteSpace=wrap;connectable=0;strokeColor=inherit;overflow=hidden;fillColor=none;top=0;left=0;bottom=0;right=0;pointerEvents=1;fontSize=16;" parent="W71XtA_5Icc1mvrdMgkB-17" vertex="1">
          <mxGeometry x="460" width="370" height="40" as="geometry">
            <mxRectangle width="370" height="40" as="alternateBounds" />
          </mxGeometry>
        </mxCell>
        <mxCell id="W71XtA_5Icc1mvrdMgkB-21" value="" style="shape=tableRow;horizontal=0;startSize=0;swimlaneHead=0;swimlaneBody=0;strokeColor=inherit;top=0;left=0;bottom=0;right=0;collapsible=0;dropTarget=0;fillColor=none;points=[[0,0.5],[1,0.5]];portConstraint=eastwest;fontSize=16;" parent="W71XtA_5Icc1mvrdMgkB-16" vertex="1">
          <mxGeometry y="70" width="830" height="140" as="geometry" />
        </mxCell>
        <mxCell id="W71XtA_5Icc1mvrdMgkB-22" value="1" style="shape=partialRectangle;html=1;whiteSpace=wrap;connectable=0;strokeColor=inherit;overflow=hidden;fillColor=none;top=0;left=0;bottom=0;right=0;pointerEvents=1;fontSize=16;" parent="W71XtA_5Icc1mvrdMgkB-21" vertex="1">
          <mxGeometry width="60" height="140" as="geometry">
            <mxRectangle width="60" height="140" as="alternateBounds" />
          </mxGeometry>
        </mxCell>
        <mxCell id="W71XtA_5Icc1mvrdMgkB-23" value="636/TCP&lt;br&gt;3269/TCP&lt;br&gt;&lt;div&gt;88/TCP-UDP&lt;/div&gt;&lt;div&gt;53/TCP-UDP&lt;/div&gt;&lt;div&gt;135/TCP&lt;/div&gt;&lt;div&gt;49152-65535/TCP&lt;/div&gt;&lt;div&gt;445/TCP&lt;/div&gt;" style="shape=partialRectangle;html=1;whiteSpace=wrap;connectable=0;strokeColor=inherit;overflow=hidden;fillColor=none;top=0;left=0;bottom=0;right=0;pointerEvents=1;fontSize=16;" parent="W71XtA_5Icc1mvrdMgkB-21" vertex="1">
          <mxGeometry x="60" width="150" height="140" as="geometry">
            <mxRectangle width="150" height="140" as="alternateBounds" />
          </mxGeometry>
        </mxCell>
        <mxCell id="W71XtA_5Icc1mvrdMgkB-24" value="Domain Controller Replication, including LDAPS, Global Catalog, Kerberos, DNS, and RPC control and data, and SMB." style="shape=partialRectangle;html=1;whiteSpace=wrap;connectable=0;strokeColor=inherit;overflow=hidden;fillColor=none;top=0;left=0;bottom=0;right=0;pointerEvents=1;fontSize=16;" parent="W71XtA_5Icc1mvrdMgkB-21" vertex="1">
          <mxGeometry x="210" width="250" height="140" as="geometry">
            <mxRectangle width="250" height="140" as="alternateBounds" />
          </mxGeometry>
        </mxCell>
        <mxCell id="W71XtA_5Icc1mvrdMgkB-50" value="Inter-VLAN traffic will be evaluated at the core firewall level, and restricted with Proxmox VM-level firewalls." style="shape=partialRectangle;html=1;whiteSpace=wrap;connectable=0;strokeColor=inherit;overflow=hidden;fillColor=none;top=0;left=0;bottom=0;right=0;pointerEvents=1;fontSize=16;" parent="W71XtA_5Icc1mvrdMgkB-21" vertex="1">
          <mxGeometry x="460" width="370" height="140" as="geometry">
            <mxRectangle width="370" height="140" as="alternateBounds" />
          </mxGeometry>
        </mxCell>
        <mxCell id="W71XtA_5Icc1mvrdMgkB-25" value="" style="shape=tableRow;horizontal=0;startSize=0;swimlaneHead=0;swimlaneBody=0;strokeColor=inherit;top=0;left=0;bottom=0;right=0;collapsible=0;dropTarget=0;fillColor=none;points=[[0,0.5],[1,0.5]];portConstraint=eastwest;fontSize=16;" parent="W71XtA_5Icc1mvrdMgkB-16" vertex="1">
          <mxGeometry y="210" width="830" height="160" as="geometry" />
        </mxCell>
        <mxCell id="W71XtA_5Icc1mvrdMgkB-26" value="2" style="shape=partialRectangle;html=1;whiteSpace=wrap;connectable=0;strokeColor=inherit;overflow=hidden;fillColor=none;top=0;left=0;bottom=0;right=0;pointerEvents=1;fontSize=16;" parent="W71XtA_5Icc1mvrdMgkB-25" vertex="1">
          <mxGeometry width="60" height="160" as="geometry">
            <mxRectangle width="60" height="160" as="alternateBounds" />
          </mxGeometry>
        </mxCell>
        <mxCell id="W71XtA_5Icc1mvrdMgkB-27" value="88/TCP-UDP&lt;div&gt;53/UDP&lt;/div&gt;&lt;div&gt;445/TCP&lt;/div&gt;" style="shape=partialRectangle;html=1;whiteSpace=wrap;connectable=0;strokeColor=inherit;overflow=hidden;fillColor=none;top=0;left=0;bottom=0;right=0;pointerEvents=1;fontSize=16;" parent="W71XtA_5Icc1mvrdMgkB-25" vertex="1">
          <mxGeometry x="60" width="150" height="160" as="geometry">
            <mxRectangle width="150" height="160" as="alternateBounds" />
          </mxGeometry>
        </mxCell>
        <mxCell id="W71XtA_5Icc1mvrdMgkB-28" value="Read-Only operations, including Kerberos, DNS lookups, and GPO downloads." style="shape=partialRectangle;html=1;whiteSpace=wrap;connectable=0;strokeColor=inherit;overflow=hidden;fillColor=none;top=0;left=0;bottom=0;right=0;pointerEvents=1;fontSize=16;" parent="W71XtA_5Icc1mvrdMgkB-25" vertex="1">
          <mxGeometry x="210" width="250" height="160" as="geometry">
            <mxRectangle width="250" height="160" as="alternateBounds" />
          </mxGeometry>
        </mxCell>
        <mxCell id="W71XtA_5Icc1mvrdMgkB-51" value="SRV record weights preference all hosts to RODCs for all operations, which refer write operations to WDCs. Site segmentation also ensures DC Locator will locate RODCs first in all cases except for the Protected Services VLAN. Inter-VLAN traffic will be evaluated at the core firewall level and restricted with Proxmox VM-level firewalls." style="shape=partialRectangle;html=1;whiteSpace=wrap;connectable=0;strokeColor=inherit;overflow=hidden;fillColor=none;top=0;left=0;bottom=0;right=0;pointerEvents=1;fontSize=16;" parent="W71XtA_5Icc1mvrdMgkB-25" vertex="1">
          <mxGeometry x="460" width="370" height="160" as="geometry">
            <mxRectangle width="370" height="160" as="alternateBounds" />
          </mxGeometry>
        </mxCell>
        <mxCell id="W71XtA_5Icc1mvrdMgkB-29" style="shape=tableRow;horizontal=0;startSize=0;swimlaneHead=0;swimlaneBody=0;strokeColor=inherit;top=0;left=0;bottom=0;right=0;collapsible=0;dropTarget=0;fillColor=none;points=[[0,0.5],[1,0.5]];portConstraint=eastwest;fontSize=16;" parent="W71XtA_5Icc1mvrdMgkB-16" vertex="1">
          <mxGeometry y="370" width="830" height="150" as="geometry" />
        </mxCell>
        <mxCell id="W71XtA_5Icc1mvrdMgkB-30" value="3" style="shape=partialRectangle;html=1;whiteSpace=wrap;connectable=0;strokeColor=inherit;overflow=hidden;fillColor=none;top=0;left=0;bottom=0;right=0;pointerEvents=1;fontSize=16;" parent="W71XtA_5Icc1mvrdMgkB-29" vertex="1">
          <mxGeometry width="60" height="150" as="geometry">
            <mxRectangle width="60" height="150" as="alternateBounds" />
          </mxGeometry>
        </mxCell>
        <mxCell id="W71XtA_5Icc1mvrdMgkB-31" value="88/TCP-UDP&lt;div&gt;53/UDP&lt;/div&gt;&lt;div&gt;445/TCP&lt;/div&gt;&lt;div&gt;5986/TCP&lt;/div&gt;" style="shape=partialRectangle;html=1;whiteSpace=wrap;connectable=0;strokeColor=inherit;overflow=hidden;fillColor=none;top=0;left=0;bottom=0;right=0;pointerEvents=1;fontSize=16;" parent="W71XtA_5Icc1mvrdMgkB-29" vertex="1">
          <mxGeometry x="60" width="150" height="150" as="geometry">
            <mxRectangle width="150" height="150" as="alternateBounds" />
          </mxGeometry>
        </mxCell>
        <mxCell id="W71XtA_5Icc1mvrdMgkB-32" value="Must-Write operations and domain admin functions, including declarative specifications for the domain, users, and groups, as well as adhoc changes included Group Managed Service Accounts (gMSAs)." style="shape=partialRectangle;html=1;whiteSpace=wrap;connectable=0;strokeColor=inherit;overflow=hidden;fillColor=none;top=0;left=0;bottom=0;right=0;pointerEvents=1;fontSize=16;" parent="W71XtA_5Icc1mvrdMgkB-29" vertex="1">
          <mxGeometry x="210" width="250" height="150" as="geometry">
            <mxRectangle width="250" height="150" as="alternateBounds" />
          </mxGeometry>
        </mxCell>
        <mxCell id="W71XtA_5Icc1mvrdMgkB-52" value="SRV record weights preference all hosts to RODCs for all operations, which refer write operations to WDCs. Site segmentation also ensures DC Locator will locate RODCs first in all cases except for the Protected Services VLAN. Inter-VLAN traffic will be evaluated at the core firewall level and restricted with Proxmox VM-level firewalls." style="shape=partialRectangle;html=1;whiteSpace=wrap;connectable=0;strokeColor=inherit;overflow=hidden;fillColor=none;top=0;left=0;bottom=0;right=0;pointerEvents=1;fontSize=16;" parent="W71XtA_5Icc1mvrdMgkB-29" vertex="1">
          <mxGeometry x="460" width="370" height="150" as="geometry">
            <mxRectangle width="370" height="150" as="alternateBounds" />
          </mxGeometry>
        </mxCell>
        <mxCell id="W71XtA_5Icc1mvrdMgkB-58" value="1" style="ellipse;whiteSpace=wrap;html=1;aspect=fixed;fontSize=22;" parent="1" vertex="1">
          <mxGeometry x="365" y="300" width="40" height="40" as="geometry" />
        </mxCell>
        <mxCell id="W71XtA_5Icc1mvrdMgkB-59" value="2" style="ellipse;whiteSpace=wrap;html=1;aspect=fixed;fontSize=22;" parent="1" vertex="1">
          <mxGeometry x="225" y="350" width="40" height="40" as="geometry" />
        </mxCell>
        <mxCell id="W71XtA_5Icc1mvrdMgkB-60" value="3" style="ellipse;whiteSpace=wrap;html=1;aspect=fixed;fontSize=22;" parent="1" vertex="1">
          <mxGeometry x="565" y="370" width="40" height="40" as="geometry" />
        </mxCell>
        <mxCell id="W71XtA_5Icc1mvrdMgkB-61" value="" style="endArrow=classic;startArrow=classic;html=1;rounded=0;entryX=0.5;entryY=1;entryDx=0;entryDy=0;exitX=0.5;exitY=0;exitDx=0;exitDy=0;" parent="1" source="W71XtA_5Icc1mvrdMgkB-12" target="W71XtA_5Icc1mvrdMgkB-8" edge="1">
          <mxGeometry width="50" height="50" relative="1" as="geometry">
            <mxPoint x="520" y="570" as="sourcePoint" />
            <mxPoint x="930" y="350" as="targetPoint" />
          </mxGeometry>
        </mxCell>
        <mxCell id="W71XtA_5Icc1mvrdMgkB-63" value="" style="endArrow=classic;startArrow=classic;html=1;rounded=0;entryX=0.5;entryY=1;entryDx=0;entryDy=0;exitX=0.5;exitY=0;exitDx=0;exitDy=0;" parent="1" source="W71XtA_5Icc1mvrdMgkB-13" target="W71XtA_5Icc1mvrdMgkB-8" edge="1">
          <mxGeometry width="50" height="50" relative="1" as="geometry">
            <mxPoint x="220" y="660" as="sourcePoint" />
            <mxPoint x="240" y="420" as="targetPoint" />
          </mxGeometry>
        </mxCell>
        <mxCell id="W71XtA_5Icc1mvrdMgkB-67" value="Active Directory Site Architecture" style="shape=table;startSize=30;container=1;collapsible=0;childLayout=tableLayout;strokeColor=default;fontSize=16;" parent="1" vertex="1">
          <mxGeometry x="880" y="40" width="800" height="430" as="geometry" />
        </mxCell>
        <mxCell id="W71XtA_5Icc1mvrdMgkB-68" value="" style="shape=tableRow;horizontal=0;startSize=0;swimlaneHead=0;swimlaneBody=0;strokeColor=inherit;top=0;left=0;bottom=0;right=0;collapsible=0;dropTarget=0;fillColor=none;points=[[0,0.5],[1,0.5]];portConstraint=eastwest;fontSize=16;" parent="W71XtA_5Icc1mvrdMgkB-67" vertex="1">
          <mxGeometry y="30" width="800" height="40" as="geometry" />
        </mxCell>
        <mxCell id="W71XtA_5Icc1mvrdMgkB-69" value="ID" style="shape=partialRectangle;html=1;whiteSpace=wrap;connectable=0;strokeColor=inherit;overflow=hidden;fillColor=none;top=0;left=0;bottom=0;right=0;pointerEvents=1;fontSize=16;" parent="W71XtA_5Icc1mvrdMgkB-68" vertex="1">
          <mxGeometry width="40" height="40" as="geometry">
            <mxRectangle width="40" height="40" as="alternateBounds" />
          </mxGeometry>
        </mxCell>
        <mxCell id="W71XtA_5Icc1mvrdMgkB-70" value="Site Name" style="shape=partialRectangle;html=1;whiteSpace=wrap;connectable=0;strokeColor=inherit;overflow=hidden;fillColor=none;top=0;left=0;bottom=0;right=0;pointerEvents=1;fontSize=16;" parent="W71XtA_5Icc1mvrdMgkB-68" vertex="1">
          <mxGeometry x="40" width="150" height="40" as="geometry">
            <mxRectangle width="150" height="40" as="alternateBounds" />
          </mxGeometry>
        </mxCell>
        <mxCell id="W71XtA_5Icc1mvrdMgkB-71" value="Subnets" style="shape=partialRectangle;html=1;whiteSpace=wrap;connectable=0;strokeColor=inherit;overflow=hidden;fillColor=none;top=0;left=0;bottom=0;right=0;pointerEvents=1;fontSize=16;" parent="W71XtA_5Icc1mvrdMgkB-68" vertex="1">
          <mxGeometry x="190" width="180" height="40" as="geometry">
            <mxRectangle width="180" height="40" as="alternateBounds" />
          </mxGeometry>
        </mxCell>
        <mxCell id="W71XtA_5Icc1mvrdMgkB-93" value="DC Type" style="shape=partialRectangle;html=1;whiteSpace=wrap;connectable=0;strokeColor=inherit;overflow=hidden;fillColor=none;top=0;left=0;bottom=0;right=0;pointerEvents=1;fontSize=16;" parent="W71XtA_5Icc1mvrdMgkB-68" vertex="1">
          <mxGeometry x="370" width="80" height="40" as="geometry">
            <mxRectangle width="80" height="40" as="alternateBounds" />
          </mxGeometry>
        </mxCell>
        <mxCell id="W71XtA_5Icc1mvrdMgkB-72" value="Description" style="shape=partialRectangle;html=1;whiteSpace=wrap;connectable=0;strokeColor=inherit;overflow=hidden;fillColor=none;top=0;left=0;bottom=0;right=0;pointerEvents=1;fontSize=16;" parent="W71XtA_5Icc1mvrdMgkB-68" vertex="1">
          <mxGeometry x="450" width="350" height="40" as="geometry">
            <mxRectangle width="350" height="40" as="alternateBounds" />
          </mxGeometry>
        </mxCell>
        <mxCell id="W71XtA_5Icc1mvrdMgkB-73" value="" style="shape=tableRow;horizontal=0;startSize=0;swimlaneHead=0;swimlaneBody=0;strokeColor=inherit;top=0;left=0;bottom=0;right=0;collapsible=0;dropTarget=0;fillColor=none;points=[[0,0.5],[1,0.5]];portConstraint=eastwest;fontSize=16;" parent="W71XtA_5Icc1mvrdMgkB-67" vertex="1">
          <mxGeometry y="70" width="800" height="100" as="geometry" />
        </mxCell>
        <mxCell id="W71XtA_5Icc1mvrdMgkB-74" value="1" style="shape=partialRectangle;html=1;whiteSpace=wrap;connectable=0;strokeColor=inherit;overflow=hidden;fillColor=none;top=0;left=0;bottom=0;right=0;pointerEvents=1;fontSize=16;" parent="W71XtA_5Icc1mvrdMgkB-73" vertex="1">
          <mxGeometry width="40" height="100" as="geometry">
            <mxRectangle width="40" height="100" as="alternateBounds" />
          </mxGeometry>
        </mxCell>
        <mxCell id="W71XtA_5Icc1mvrdMgkB-75" value="Protected-Core" style="shape=partialRectangle;html=1;whiteSpace=wrap;connectable=0;strokeColor=inherit;overflow=hidden;fillColor=none;top=0;left=0;bottom=0;right=0;pointerEvents=1;fontSize=16;" parent="W71XtA_5Icc1mvrdMgkB-73" vertex="1">
          <mxGeometry x="40" width="150" height="100" as="geometry">
            <mxRectangle width="150" height="100" as="alternateBounds" />
          </mxGeometry>
        </mxCell>
        <mxCell id="W71XtA_5Icc1mvrdMgkB-76" value="10.0.21.0/24" style="shape=partialRectangle;html=1;whiteSpace=wrap;connectable=0;strokeColor=inherit;overflow=hidden;fillColor=none;top=0;left=0;bottom=0;right=0;pointerEvents=1;fontSize=16;" parent="W71XtA_5Icc1mvrdMgkB-73" vertex="1">
          <mxGeometry x="190" width="180" height="100" as="geometry">
            <mxRectangle width="180" height="100" as="alternateBounds" />
          </mxGeometry>
        </mxCell>
        <mxCell id="W71XtA_5Icc1mvrdMgkB-94" value="W" style="shape=partialRectangle;html=1;whiteSpace=wrap;connectable=0;strokeColor=inherit;overflow=hidden;fillColor=none;top=0;left=0;bottom=0;right=0;pointerEvents=1;fontSize=16;" parent="W71XtA_5Icc1mvrdMgkB-73" vertex="1">
          <mxGeometry x="370" width="80" height="100" as="geometry">
            <mxRectangle width="80" height="100" as="alternateBounds" />
          </mxGeometry>
        </mxCell>
        <mxCell id="W71XtA_5Icc1mvrdMgkB-77" value="Only the protected services get direct access to the WDCs via DC Locator. This IP Space correlates with the Core physical site." style="shape=partialRectangle;html=1;whiteSpace=wrap;connectable=0;strokeColor=inherit;overflow=hidden;fillColor=none;top=0;left=0;bottom=0;right=0;pointerEvents=1;fontSize=16;" parent="W71XtA_5Icc1mvrdMgkB-73" vertex="1">
          <mxGeometry x="450" width="350" height="100" as="geometry">
            <mxRectangle width="350" height="100" as="alternateBounds" />
          </mxGeometry>
        </mxCell>
        <mxCell id="W71XtA_5Icc1mvrdMgkB-78" value="" style="shape=tableRow;horizontal=0;startSize=0;swimlaneHead=0;swimlaneBody=0;strokeColor=inherit;top=0;left=0;bottom=0;right=0;collapsible=0;dropTarget=0;fillColor=none;points=[[0,0.5],[1,0.5]];portConstraint=eastwest;fontSize=16;" parent="W71XtA_5Icc1mvrdMgkB-67" vertex="1">
          <mxGeometry y="170" width="800" height="130" as="geometry" />
        </mxCell>
        <mxCell id="W71XtA_5Icc1mvrdMgkB-79" value="2" style="shape=partialRectangle;html=1;whiteSpace=wrap;connectable=0;strokeColor=inherit;overflow=hidden;fillColor=none;top=0;left=0;bottom=0;right=0;pointerEvents=1;fontSize=16;" parent="W71XtA_5Icc1mvrdMgkB-78" vertex="1">
          <mxGeometry width="40" height="130" as="geometry">
            <mxRectangle width="40" height="130" as="alternateBounds" />
          </mxGeometry>
        </mxCell>
        <mxCell id="W71XtA_5Icc1mvrdMgkB-80" value="Primary-Core" style="shape=partialRectangle;html=1;whiteSpace=wrap;connectable=0;strokeColor=inherit;overflow=hidden;fillColor=none;top=0;left=0;bottom=0;right=0;pointerEvents=1;fontSize=16;" parent="W71XtA_5Icc1mvrdMgkB-78" vertex="1">
          <mxGeometry x="40" width="150" height="130" as="geometry">
            <mxRectangle width="150" height="130" as="alternateBounds" />
          </mxGeometry>
        </mxCell>
        <mxCell id="W71XtA_5Icc1mvrdMgkB-81" value="10.0.20.0/24&lt;div&gt;10.0.40.0/24&lt;/div&gt;&lt;div&gt;10.0.99.0/24&lt;/div&gt;" style="shape=partialRectangle;html=1;whiteSpace=wrap;connectable=0;strokeColor=inherit;overflow=hidden;fillColor=none;top=0;left=0;bottom=0;right=0;pointerEvents=1;fontSize=16;" parent="W71XtA_5Icc1mvrdMgkB-78" vertex="1">
          <mxGeometry x="190" width="180" height="130" as="geometry">
            <mxRectangle width="180" height="130" as="alternateBounds" />
          </mxGeometry>
        </mxCell>
        <mxCell id="W71XtA_5Icc1mvrdMgkB-95" value="RO" style="shape=partialRectangle;html=1;whiteSpace=wrap;connectable=0;strokeColor=inherit;overflow=hidden;fillColor=none;top=0;left=0;bottom=0;right=0;pointerEvents=1;fontSize=16;" parent="W71XtA_5Icc1mvrdMgkB-78" vertex="1">
          <mxGeometry x="370" width="80" height="130" as="geometry">
            <mxRectangle width="80" height="130" as="alternateBounds" />
          </mxGeometry>
        </mxCell>
        <mxCell id="W71XtA_5Icc1mvrdMgkB-82" value="The Primary set of IP spaces at the Core Physical Site, associated with the RODCs at the Core site.&lt;br&gt;No domain joins on 10.0.99.0/24; only DC Locator" style="shape=partialRectangle;html=1;whiteSpace=wrap;connectable=0;strokeColor=inherit;overflow=hidden;fillColor=none;top=0;left=0;bottom=0;right=0;pointerEvents=1;fontSize=16;" parent="W71XtA_5Icc1mvrdMgkB-78" vertex="1">
          <mxGeometry x="450" width="350" height="130" as="geometry">
            <mxRectangle width="350" height="130" as="alternateBounds" />
          </mxGeometry>
        </mxCell>
        <mxCell id="W71XtA_5Icc1mvrdMgkB-88" style="shape=tableRow;horizontal=0;startSize=0;swimlaneHead=0;swimlaneBody=0;strokeColor=inherit;top=0;left=0;bottom=0;right=0;collapsible=0;dropTarget=0;fillColor=none;points=[[0,0.5],[1,0.5]];portConstraint=eastwest;fontSize=16;" parent="W71XtA_5Icc1mvrdMgkB-67" vertex="1">
          <mxGeometry y="300" width="800" height="130" as="geometry" />
        </mxCell>
        <mxCell id="W71XtA_5Icc1mvrdMgkB-89" value="3" style="shape=partialRectangle;html=1;whiteSpace=wrap;connectable=0;strokeColor=inherit;overflow=hidden;fillColor=none;top=0;left=0;bottom=0;right=0;pointerEvents=1;fontSize=16;" parent="W71XtA_5Icc1mvrdMgkB-88" vertex="1">
          <mxGeometry width="40" height="130" as="geometry">
            <mxRectangle width="40" height="130" as="alternateBounds" />
          </mxGeometry>
        </mxCell>
        <mxCell id="W71XtA_5Icc1mvrdMgkB-90" value="DMZ-Core" style="shape=partialRectangle;html=1;whiteSpace=wrap;connectable=0;strokeColor=inherit;overflow=hidden;fillColor=none;top=0;left=0;bottom=0;right=0;pointerEvents=1;fontSize=16;" parent="W71XtA_5Icc1mvrdMgkB-88" vertex="1">
          <mxGeometry x="40" width="150" height="130" as="geometry">
            <mxRectangle width="150" height="130" as="alternateBounds" />
          </mxGeometry>
        </mxCell>
        <mxCell id="W71XtA_5Icc1mvrdMgkB-91" value="10.0.30.0/24" style="shape=partialRectangle;html=1;whiteSpace=wrap;connectable=0;strokeColor=inherit;overflow=hidden;fillColor=none;top=0;left=0;bottom=0;right=0;pointerEvents=1;fontSize=16;" parent="W71XtA_5Icc1mvrdMgkB-88" vertex="1">
          <mxGeometry x="190" width="180" height="130" as="geometry">
            <mxRectangle width="180" height="130" as="alternateBounds" />
          </mxGeometry>
        </mxCell>
        <mxCell id="W71XtA_5Icc1mvrdMgkB-96" value="RO" style="shape=partialRectangle;html=1;whiteSpace=wrap;connectable=0;strokeColor=inherit;overflow=hidden;fillColor=none;top=0;left=0;bottom=0;right=0;pointerEvents=1;fontSize=16;" parent="W71XtA_5Icc1mvrdMgkB-88" vertex="1">
          <mxGeometry x="370" width="80" height="130" as="geometry">
            <mxRectangle width="80" height="130" as="alternateBounds" />
          </mxGeometry>
        </mxCell>
        <mxCell id="W71XtA_5Icc1mvrdMgkB-92" value="The DMZ at the Core physical site." style="shape=partialRectangle;html=1;whiteSpace=wrap;connectable=0;strokeColor=inherit;overflow=hidden;fillColor=none;top=0;left=0;bottom=0;right=0;pointerEvents=1;fontSize=16;" parent="W71XtA_5Icc1mvrdMgkB-88" vertex="1">
          <mxGeometry x="450" width="350" height="130" as="geometry">
            <mxRectangle width="350" height="130" as="alternateBounds" />
          </mxGeometry>
        </mxCell>
        <mxCell id="W71XtA_5Icc1mvrdMgkB-97" value="Must-Write Use Cases" style="shape=table;startSize=30;container=1;collapsible=0;childLayout=tableLayout;strokeColor=default;fontSize=16;" parent="1" vertex="1">
          <mxGeometry x="1730" y="40" width="790" height="365" as="geometry" />
        </mxCell>
        <mxCell id="W71XtA_5Icc1mvrdMgkB-98" value="" style="shape=tableRow;horizontal=0;startSize=0;swimlaneHead=0;swimlaneBody=0;strokeColor=inherit;top=0;left=0;bottom=0;right=0;collapsible=0;dropTarget=0;fillColor=none;points=[[0,0.5],[1,0.5]];portConstraint=eastwest;fontSize=16;" parent="W71XtA_5Icc1mvrdMgkB-97" vertex="1">
          <mxGeometry y="30" width="790" height="35" as="geometry" />
        </mxCell>
        <mxCell id="W71XtA_5Icc1mvrdMgkB-99" value="ID" style="shape=partialRectangle;html=1;whiteSpace=wrap;connectable=0;strokeColor=inherit;overflow=hidden;fillColor=none;top=0;left=0;bottom=0;right=0;pointerEvents=1;fontSize=16;" parent="W71XtA_5Icc1mvrdMgkB-98" vertex="1">
          <mxGeometry width="40" height="35" as="geometry">
            <mxRectangle width="40" height="35" as="alternateBounds" />
          </mxGeometry>
        </mxCell>
        <mxCell id="W71XtA_5Icc1mvrdMgkB-100" value="Application" style="shape=partialRectangle;html=1;whiteSpace=wrap;connectable=0;strokeColor=inherit;overflow=hidden;fillColor=none;top=0;left=0;bottom=0;right=0;pointerEvents=1;fontSize=16;" parent="W71XtA_5Icc1mvrdMgkB-98" vertex="1">
          <mxGeometry x="40" width="150" height="35" as="geometry">
            <mxRectangle width="150" height="35" as="alternateBounds" />
          </mxGeometry>
        </mxCell>
        <mxCell id="W71XtA_5Icc1mvrdMgkB-101" value="Function" style="shape=partialRectangle;html=1;whiteSpace=wrap;connectable=0;strokeColor=inherit;overflow=hidden;fillColor=none;top=0;left=0;bottom=0;right=0;pointerEvents=1;fontSize=16;" parent="W71XtA_5Icc1mvrdMgkB-98" vertex="1">
          <mxGeometry x="190" width="180" height="35" as="geometry">
            <mxRectangle width="180" height="35" as="alternateBounds" />
          </mxGeometry>
        </mxCell>
        <mxCell id="W71XtA_5Icc1mvrdMgkB-103" value="Description" style="shape=partialRectangle;html=1;whiteSpace=wrap;connectable=0;strokeColor=inherit;overflow=hidden;fillColor=none;top=0;left=0;bottom=0;right=0;pointerEvents=1;fontSize=16;" parent="W71XtA_5Icc1mvrdMgkB-98" vertex="1">
          <mxGeometry x="370" width="420" height="35" as="geometry">
            <mxRectangle width="420" height="35" as="alternateBounds" />
          </mxGeometry>
        </mxCell>
        <mxCell id="W71XtA_5Icc1mvrdMgkB-104" value="" style="shape=tableRow;horizontal=0;startSize=0;swimlaneHead=0;swimlaneBody=0;strokeColor=inherit;top=0;left=0;bottom=0;right=0;collapsible=0;dropTarget=0;fillColor=none;points=[[0,0.5],[1,0.5]];portConstraint=eastwest;fontSize=16;" parent="W71XtA_5Icc1mvrdMgkB-97" vertex="1">
          <mxGeometry y="65" width="790" height="45" as="geometry" />
        </mxCell>
        <mxCell id="W71XtA_5Icc1mvrdMgkB-105" value="1" style="shape=partialRectangle;html=1;whiteSpace=wrap;connectable=0;strokeColor=inherit;overflow=hidden;fillColor=none;top=0;left=0;bottom=0;right=0;pointerEvents=1;fontSize=16;" parent="W71XtA_5Icc1mvrdMgkB-104" vertex="1">
          <mxGeometry width="40" height="45" as="geometry">
            <mxRectangle width="40" height="45" as="alternateBounds" />
          </mxGeometry>
        </mxCell>
        <mxCell id="W71XtA_5Icc1mvrdMgkB-106" value="General" style="shape=partialRectangle;html=1;whiteSpace=wrap;connectable=0;strokeColor=inherit;overflow=hidden;fillColor=none;top=0;left=0;bottom=0;right=0;pointerEvents=1;fontSize=16;" parent="W71XtA_5Icc1mvrdMgkB-104" vertex="1">
          <mxGeometry x="40" width="150" height="45" as="geometry">
            <mxRectangle width="150" height="45" as="alternateBounds" />
          </mxGeometry>
        </mxCell>
        <mxCell id="W71XtA_5Icc1mvrdMgkB-107" value="Domain Joins" style="shape=partialRectangle;html=1;whiteSpace=wrap;connectable=0;strokeColor=inherit;overflow=hidden;fillColor=none;top=0;left=0;bottom=0;right=0;pointerEvents=1;fontSize=16;" parent="W71XtA_5Icc1mvrdMgkB-104" vertex="1">
          <mxGeometry x="190" width="180" height="45" as="geometry">
            <mxRectangle width="180" height="45" as="alternateBounds" />
          </mxGeometry>
        </mxCell>
        <mxCell id="W71XtA_5Icc1mvrdMgkB-109" value="Domain Joins possible from any subnet in the domain; will hit the RODC first before getting referred to the RWDC." style="shape=partialRectangle;html=1;whiteSpace=wrap;connectable=0;strokeColor=inherit;overflow=hidden;fillColor=none;top=0;left=0;bottom=0;right=0;pointerEvents=1;fontSize=16;" parent="W71XtA_5Icc1mvrdMgkB-104" vertex="1">
          <mxGeometry x="370" width="420" height="45" as="geometry">
            <mxRectangle width="420" height="45" as="alternateBounds" />
          </mxGeometry>
        </mxCell>
        <mxCell id="W71XtA_5Icc1mvrdMgkB-110" value="" style="shape=tableRow;horizontal=0;startSize=0;swimlaneHead=0;swimlaneBody=0;strokeColor=inherit;top=0;left=0;bottom=0;right=0;collapsible=0;dropTarget=0;fillColor=none;points=[[0,0.5],[1,0.5]];portConstraint=eastwest;fontSize=16;" parent="W71XtA_5Icc1mvrdMgkB-97" vertex="1">
          <mxGeometry y="110" width="790" height="44" as="geometry" />
        </mxCell>
        <mxCell id="W71XtA_5Icc1mvrdMgkB-111" value="2" style="shape=partialRectangle;html=1;whiteSpace=wrap;connectable=0;strokeColor=inherit;overflow=hidden;fillColor=none;top=0;left=0;bottom=0;right=0;pointerEvents=1;fontSize=16;" parent="W71XtA_5Icc1mvrdMgkB-110" vertex="1">
          <mxGeometry width="40" height="44" as="geometry">
            <mxRectangle width="40" height="44" as="alternateBounds" />
          </mxGeometry>
        </mxCell>
        <mxCell id="W71XtA_5Icc1mvrdMgkB-112" value="General" style="shape=partialRectangle;html=1;whiteSpace=wrap;connectable=0;strokeColor=inherit;overflow=hidden;fillColor=none;top=0;left=0;bottom=0;right=0;pointerEvents=1;fontSize=16;" parent="W71XtA_5Icc1mvrdMgkB-110" vertex="1">
          <mxGeometry x="40" width="150" height="44" as="geometry">
            <mxRectangle width="150" height="44" as="alternateBounds" />
          </mxGeometry>
        </mxCell>
        <mxCell id="W71XtA_5Icc1mvrdMgkB-113" value="DNS Updates" style="shape=partialRectangle;html=1;whiteSpace=wrap;connectable=0;strokeColor=inherit;overflow=hidden;fillColor=none;top=0;left=0;bottom=0;right=0;pointerEvents=1;fontSize=16;" parent="W71XtA_5Icc1mvrdMgkB-110" vertex="1">
          <mxGeometry x="190" width="180" height="44" as="geometry">
            <mxRectangle width="180" height="44" as="alternateBounds" />
          </mxGeometry>
        </mxCell>
        <mxCell id="W71XtA_5Icc1mvrdMgkB-115" value="DHCP hosts can update their own DNS records; will hit the RODC first before getting referred to the RWDC." style="shape=partialRectangle;html=1;whiteSpace=wrap;connectable=0;strokeColor=inherit;overflow=hidden;fillColor=none;top=0;left=0;bottom=0;right=0;pointerEvents=1;fontSize=16;" parent="W71XtA_5Icc1mvrdMgkB-110" vertex="1">
          <mxGeometry x="370" width="420" height="44" as="geometry">
            <mxRectangle width="420" height="44" as="alternateBounds" />
          </mxGeometry>
        </mxCell>
        <mxCell id="W71XtA_5Icc1mvrdMgkB-116" style="shape=tableRow;horizontal=0;startSize=0;swimlaneHead=0;swimlaneBody=0;strokeColor=inherit;top=0;left=0;bottom=0;right=0;collapsible=0;dropTarget=0;fillColor=none;points=[[0,0.5],[1,0.5]];portConstraint=eastwest;fontSize=16;" parent="W71XtA_5Icc1mvrdMgkB-97" vertex="1">
          <mxGeometry y="154" width="790" height="115" as="geometry" />
        </mxCell>
        <mxCell id="W71XtA_5Icc1mvrdMgkB-117" value="3" style="shape=partialRectangle;html=1;whiteSpace=wrap;connectable=0;strokeColor=inherit;overflow=hidden;fillColor=none;top=0;left=0;bottom=0;right=0;pointerEvents=1;fontSize=16;" parent="W71XtA_5Icc1mvrdMgkB-116" vertex="1">
          <mxGeometry width="40" height="115" as="geometry">
            <mxRectangle width="40" height="115" as="alternateBounds" />
          </mxGeometry>
        </mxCell>
        <mxCell id="W71XtA_5Icc1mvrdMgkB-118" value="General" style="shape=partialRectangle;html=1;whiteSpace=wrap;connectable=0;strokeColor=inherit;overflow=hidden;fillColor=none;top=0;left=0;bottom=0;right=0;pointerEvents=1;fontSize=16;" parent="W71XtA_5Icc1mvrdMgkB-116" vertex="1">
          <mxGeometry x="40" width="150" height="115" as="geometry">
            <mxRectangle width="150" height="115" as="alternateBounds" />
          </mxGeometry>
        </mxCell>
        <mxCell id="W71XtA_5Icc1mvrdMgkB-119" value="gMSA" style="shape=partialRectangle;html=1;whiteSpace=wrap;connectable=0;strokeColor=inherit;overflow=hidden;fillColor=none;top=0;left=0;bottom=0;right=0;pointerEvents=1;fontSize=16;" parent="W71XtA_5Icc1mvrdMgkB-116" vertex="1">
          <mxGeometry x="190" width="180" height="115" as="geometry">
            <mxRectangle width="180" height="115" as="alternateBounds" />
          </mxGeometry>
        </mxCell>
        <mxCell id="W71XtA_5Icc1mvrdMgkB-121" value="Group Managed Service Accounts (gMSAs) are service accounts that can manage their own password, removing the need for a human to set a potentially insecure password. They need direct access to RWDCs to retrieve and roll their credential." style="shape=partialRectangle;html=1;whiteSpace=wrap;connectable=0;strokeColor=inherit;overflow=hidden;fillColor=none;top=0;left=0;bottom=0;right=0;pointerEvents=1;fontSize=16;" parent="W71XtA_5Icc1mvrdMgkB-116" vertex="1">
          <mxGeometry x="370" width="420" height="115" as="geometry">
            <mxRectangle width="420" height="115" as="alternateBounds" />
          </mxGeometry>
        </mxCell>
        <mxCell id="qptbaauTguZUWlIUalm4-71" style="shape=tableRow;horizontal=0;startSize=0;swimlaneHead=0;swimlaneBody=0;strokeColor=inherit;top=0;left=0;bottom=0;right=0;collapsible=0;dropTarget=0;fillColor=none;points=[[0,0.5],[1,0.5]];portConstraint=eastwest;fontSize=16;" parent="W71XtA_5Icc1mvrdMgkB-97" vertex="1">
          <mxGeometry y="269" width="790" height="51" as="geometry" />
        </mxCell>
        <mxCell id="qptbaauTguZUWlIUalm4-72" value="4" style="shape=partialRectangle;html=1;whiteSpace=wrap;connectable=0;strokeColor=inherit;overflow=hidden;fillColor=none;top=0;left=0;bottom=0;right=0;pointerEvents=1;fontSize=16;" parent="qptbaauTguZUWlIUalm4-71" vertex="1">
          <mxGeometry width="40" height="51" as="geometry">
            <mxRectangle width="40" height="51" as="alternateBounds" />
          </mxGeometry>
        </mxCell>
        <mxCell id="qptbaauTguZUWlIUalm4-73" value="TBD" style="shape=partialRectangle;html=1;whiteSpace=wrap;connectable=0;strokeColor=inherit;overflow=hidden;fillColor=none;top=0;left=0;bottom=0;right=0;pointerEvents=1;fontSize=16;" parent="qptbaauTguZUWlIUalm4-71" vertex="1">
          <mxGeometry x="40" width="150" height="51" as="geometry">
            <mxRectangle width="150" height="51" as="alternateBounds" />
          </mxGeometry>
        </mxCell>
        <mxCell id="qptbaauTguZUWlIUalm4-74" value="Schema Mods and Attribute Stamping" style="shape=partialRectangle;html=1;whiteSpace=wrap;connectable=0;strokeColor=inherit;overflow=hidden;fillColor=none;top=0;left=0;bottom=0;right=0;pointerEvents=1;fontSize=16;" parent="qptbaauTguZUWlIUalm4-71" vertex="1">
          <mxGeometry x="190" width="180" height="51" as="geometry">
            <mxRectangle width="180" height="51" as="alternateBounds" />
          </mxGeometry>
        </mxCell>
        <mxCell id="qptbaauTguZUWlIUalm4-75" value="TBD - will be filled in once applications are identified" style="shape=partialRectangle;html=1;whiteSpace=wrap;connectable=0;strokeColor=inherit;overflow=hidden;fillColor=none;top=0;left=0;bottom=0;right=0;pointerEvents=1;fontSize=16;" parent="qptbaauTguZUWlIUalm4-71" vertex="1">
          <mxGeometry x="370" width="420" height="51" as="geometry">
            <mxRectangle width="420" height="51" as="alternateBounds" />
          </mxGeometry>
        </mxCell>
        <mxCell id="qptbaauTguZUWlIUalm4-66" style="shape=tableRow;horizontal=0;startSize=0;swimlaneHead=0;swimlaneBody=0;strokeColor=inherit;top=0;left=0;bottom=0;right=0;collapsible=0;dropTarget=0;fillColor=none;points=[[0,0.5],[1,0.5]];portConstraint=eastwest;fontSize=16;" parent="W71XtA_5Icc1mvrdMgkB-97" vertex="1">
          <mxGeometry y="320" width="790" height="45" as="geometry" />
        </mxCell>
        <mxCell id="qptbaauTguZUWlIUalm4-67" value="5" style="shape=partialRectangle;html=1;whiteSpace=wrap;connectable=0;strokeColor=inherit;overflow=hidden;fillColor=none;top=0;left=0;bottom=0;right=0;pointerEvents=1;fontSize=16;" parent="qptbaauTguZUWlIUalm4-66" vertex="1">
          <mxGeometry width="40" height="45" as="geometry">
            <mxRectangle width="40" height="45" as="alternateBounds" />
          </mxGeometry>
        </mxCell>
        <mxCell id="qptbaauTguZUWlIUalm4-68" style="shape=partialRectangle;html=1;whiteSpace=wrap;connectable=0;strokeColor=inherit;overflow=hidden;fillColor=none;top=0;left=0;bottom=0;right=0;pointerEvents=1;fontSize=16;" parent="qptbaauTguZUWlIUalm4-66" vertex="1">
          <mxGeometry x="40" width="150" height="45" as="geometry">
            <mxRectangle width="150" height="45" as="alternateBounds" />
          </mxGeometry>
        </mxCell>
        <mxCell id="qptbaauTguZUWlIUalm4-69" style="shape=partialRectangle;html=1;whiteSpace=wrap;connectable=0;strokeColor=inherit;overflow=hidden;fillColor=none;top=0;left=0;bottom=0;right=0;pointerEvents=1;fontSize=16;" parent="qptbaauTguZUWlIUalm4-66" vertex="1">
          <mxGeometry x="190" width="180" height="45" as="geometry">
            <mxRectangle width="180" height="45" as="alternateBounds" />
          </mxGeometry>
        </mxCell>
        <mxCell id="qptbaauTguZUWlIUalm4-70" style="shape=partialRectangle;html=1;whiteSpace=wrap;connectable=0;strokeColor=inherit;overflow=hidden;fillColor=none;top=0;left=0;bottom=0;right=0;pointerEvents=1;fontSize=16;" parent="qptbaauTguZUWlIUalm4-66" vertex="1">
          <mxGeometry x="370" width="420" height="45" as="geometry">
            <mxRectangle width="420" height="45" as="alternateBounds" />
          </mxGeometry>
        </mxCell>
        <mxCell id="qptbaauTguZUWlIUalm4-1" value="Site Links" style="shape=table;startSize=30;container=1;collapsible=0;childLayout=tableLayout;strokeColor=default;fontSize=16;" parent="1" vertex="1">
          <mxGeometry x="880" y="500" width="800" height="430" as="geometry" />
        </mxCell>
        <mxCell id="qptbaauTguZUWlIUalm4-2" value="" style="shape=tableRow;horizontal=0;startSize=0;swimlaneHead=0;swimlaneBody=0;strokeColor=inherit;top=0;left=0;bottom=0;right=0;collapsible=0;dropTarget=0;fillColor=none;points=[[0,0.5],[1,0.5]];portConstraint=eastwest;fontSize=16;" parent="qptbaauTguZUWlIUalm4-1" vertex="1">
          <mxGeometry y="30" width="800" height="40" as="geometry" />
        </mxCell>
        <mxCell id="qptbaauTguZUWlIUalm4-3" value="ID" style="shape=partialRectangle;html=1;whiteSpace=wrap;connectable=0;strokeColor=inherit;overflow=hidden;fillColor=none;top=0;left=0;bottom=0;right=0;pointerEvents=1;fontSize=16;" parent="qptbaauTguZUWlIUalm4-2" vertex="1">
          <mxGeometry width="47" height="40" as="geometry">
            <mxRectangle width="47" height="40" as="alternateBounds" />
          </mxGeometry>
        </mxCell>
        <mxCell id="qptbaauTguZUWlIUalm4-4" value="Site1" style="shape=partialRectangle;html=1;whiteSpace=wrap;connectable=0;strokeColor=inherit;overflow=hidden;fillColor=none;top=0;left=0;bottom=0;right=0;pointerEvents=1;fontSize=16;" parent="qptbaauTguZUWlIUalm4-2" vertex="1">
          <mxGeometry x="47" width="133" height="40" as="geometry">
            <mxRectangle width="133" height="40" as="alternateBounds" />
          </mxGeometry>
        </mxCell>
        <mxCell id="qptbaauTguZUWlIUalm4-5" value="Site2" style="shape=partialRectangle;html=1;whiteSpace=wrap;connectable=0;strokeColor=inherit;overflow=hidden;fillColor=none;top=0;left=0;bottom=0;right=0;pointerEvents=1;fontSize=16;" parent="qptbaauTguZUWlIUalm4-2" vertex="1">
          <mxGeometry x="180" width="140" height="40" as="geometry">
            <mxRectangle width="140" height="40" as="alternateBounds" />
          </mxGeometry>
        </mxCell>
        <mxCell id="qptbaauTguZUWlIUalm4-6" value="Directionality" style="shape=partialRectangle;html=1;whiteSpace=wrap;connectable=0;strokeColor=inherit;overflow=hidden;fillColor=none;top=0;left=0;bottom=0;right=0;pointerEvents=1;fontSize=16;" parent="qptbaauTguZUWlIUalm4-2" vertex="1">
          <mxGeometry x="320" width="120" height="40" as="geometry">
            <mxRectangle width="120" height="40" as="alternateBounds" />
          </mxGeometry>
        </mxCell>
        <mxCell id="qptbaauTguZUWlIUalm4-26" value="Description" style="shape=partialRectangle;html=1;whiteSpace=wrap;connectable=0;strokeColor=inherit;overflow=hidden;fillColor=none;top=0;left=0;bottom=0;right=0;pointerEvents=1;fontSize=16;" parent="qptbaauTguZUWlIUalm4-2" vertex="1">
          <mxGeometry x="440" width="360" height="40" as="geometry">
            <mxRectangle width="360" height="40" as="alternateBounds" />
          </mxGeometry>
        </mxCell>
        <mxCell id="qptbaauTguZUWlIUalm4-8" value="" style="shape=tableRow;horizontal=0;startSize=0;swimlaneHead=0;swimlaneBody=0;strokeColor=inherit;top=0;left=0;bottom=0;right=0;collapsible=0;dropTarget=0;fillColor=none;points=[[0,0.5],[1,0.5]];portConstraint=eastwest;fontSize=16;" parent="qptbaauTguZUWlIUalm4-1" vertex="1">
          <mxGeometry y="70" width="800" height="100" as="geometry" />
        </mxCell>
        <mxCell id="qptbaauTguZUWlIUalm4-9" value="1" style="shape=partialRectangle;html=1;whiteSpace=wrap;connectable=0;strokeColor=inherit;overflow=hidden;fillColor=none;top=0;left=0;bottom=0;right=0;pointerEvents=1;fontSize=16;" parent="qptbaauTguZUWlIUalm4-8" vertex="1">
          <mxGeometry width="47" height="100" as="geometry">
            <mxRectangle width="47" height="100" as="alternateBounds" />
          </mxGeometry>
        </mxCell>
        <mxCell id="qptbaauTguZUWlIUalm4-10" value="Protected-Core" style="shape=partialRectangle;html=1;whiteSpace=wrap;connectable=0;strokeColor=inherit;overflow=hidden;fillColor=none;top=0;left=0;bottom=0;right=0;pointerEvents=1;fontSize=16;" parent="qptbaauTguZUWlIUalm4-8" vertex="1">
          <mxGeometry x="47" width="133" height="100" as="geometry">
            <mxRectangle width="133" height="100" as="alternateBounds" />
          </mxGeometry>
        </mxCell>
        <mxCell id="qptbaauTguZUWlIUalm4-11" value="Primary-Core" style="shape=partialRectangle;html=1;whiteSpace=wrap;connectable=0;strokeColor=inherit;overflow=hidden;fillColor=none;top=0;left=0;bottom=0;right=0;pointerEvents=1;fontSize=16;" parent="qptbaauTguZUWlIUalm4-8" vertex="1">
          <mxGeometry x="180" width="140" height="100" as="geometry">
            <mxRectangle width="140" height="100" as="alternateBounds" />
          </mxGeometry>
        </mxCell>
        <mxCell id="qptbaauTguZUWlIUalm4-12" value="Bi-Directional" style="shape=partialRectangle;html=1;whiteSpace=wrap;connectable=0;strokeColor=inherit;overflow=hidden;fillColor=none;top=0;left=0;bottom=0;right=0;pointerEvents=1;fontSize=16;" parent="qptbaauTguZUWlIUalm4-8" vertex="1">
          <mxGeometry x="320" width="120" height="100" as="geometry">
            <mxRectangle width="120" height="100" as="alternateBounds" />
          </mxGeometry>
        </mxCell>
        <mxCell id="qptbaauTguZUWlIUalm4-27" value="Always on, cost-biased towards RODCs, and not schedule limited. Sites are physically at the same location, so bandwidth/latency isn&#39;t a concern" style="shape=partialRectangle;html=1;whiteSpace=wrap;connectable=0;strokeColor=inherit;overflow=hidden;fillColor=none;top=0;left=0;bottom=0;right=0;pointerEvents=1;fontSize=16;" parent="qptbaauTguZUWlIUalm4-8" vertex="1">
          <mxGeometry x="440" width="360" height="100" as="geometry">
            <mxRectangle width="360" height="100" as="alternateBounds" />
          </mxGeometry>
        </mxCell>
        <mxCell id="qptbaauTguZUWlIUalm4-14" value="" style="shape=tableRow;horizontal=0;startSize=0;swimlaneHead=0;swimlaneBody=0;strokeColor=inherit;top=0;left=0;bottom=0;right=0;collapsible=0;dropTarget=0;fillColor=none;points=[[0,0.5],[1,0.5]];portConstraint=eastwest;fontSize=16;" parent="qptbaauTguZUWlIUalm4-1" vertex="1">
          <mxGeometry y="170" width="800" height="130" as="geometry" />
        </mxCell>
        <mxCell id="qptbaauTguZUWlIUalm4-15" value="2" style="shape=partialRectangle;html=1;whiteSpace=wrap;connectable=0;strokeColor=inherit;overflow=hidden;fillColor=none;top=0;left=0;bottom=0;right=0;pointerEvents=1;fontSize=16;" parent="qptbaauTguZUWlIUalm4-14" vertex="1">
          <mxGeometry width="47" height="130" as="geometry">
            <mxRectangle width="47" height="130" as="alternateBounds" />
          </mxGeometry>
        </mxCell>
        <mxCell id="qptbaauTguZUWlIUalm4-16" value="" style="shape=partialRectangle;html=1;whiteSpace=wrap;connectable=0;strokeColor=inherit;overflow=hidden;fillColor=none;top=0;left=0;bottom=0;right=0;pointerEvents=1;fontSize=16;" parent="qptbaauTguZUWlIUalm4-14" vertex="1">
          <mxGeometry x="47" width="133" height="130" as="geometry">
            <mxRectangle width="133" height="130" as="alternateBounds" />
          </mxGeometry>
        </mxCell>
        <mxCell id="qptbaauTguZUWlIUalm4-17" value="" style="shape=partialRectangle;html=1;whiteSpace=wrap;connectable=0;strokeColor=inherit;overflow=hidden;fillColor=none;top=0;left=0;bottom=0;right=0;pointerEvents=1;fontSize=16;" parent="qptbaauTguZUWlIUalm4-14" vertex="1">
          <mxGeometry x="180" width="140" height="130" as="geometry">
            <mxRectangle width="140" height="130" as="alternateBounds" />
          </mxGeometry>
        </mxCell>
        <mxCell id="qptbaauTguZUWlIUalm4-18" value="" style="shape=partialRectangle;html=1;whiteSpace=wrap;connectable=0;strokeColor=inherit;overflow=hidden;fillColor=none;top=0;left=0;bottom=0;right=0;pointerEvents=1;fontSize=16;" parent="qptbaauTguZUWlIUalm4-14" vertex="1">
          <mxGeometry x="320" width="120" height="130" as="geometry">
            <mxRectangle width="120" height="130" as="alternateBounds" />
          </mxGeometry>
        </mxCell>
        <mxCell id="qptbaauTguZUWlIUalm4-28" style="shape=partialRectangle;html=1;whiteSpace=wrap;connectable=0;strokeColor=inherit;overflow=hidden;fillColor=none;top=0;left=0;bottom=0;right=0;pointerEvents=1;fontSize=16;" parent="qptbaauTguZUWlIUalm4-14" vertex="1">
          <mxGeometry x="440" width="360" height="130" as="geometry">
            <mxRectangle width="360" height="130" as="alternateBounds" />
          </mxGeometry>
        </mxCell>
        <mxCell id="qptbaauTguZUWlIUalm4-20" style="shape=tableRow;horizontal=0;startSize=0;swimlaneHead=0;swimlaneBody=0;strokeColor=inherit;top=0;left=0;bottom=0;right=0;collapsible=0;dropTarget=0;fillColor=none;points=[[0,0.5],[1,0.5]];portConstraint=eastwest;fontSize=16;" parent="qptbaauTguZUWlIUalm4-1" vertex="1">
          <mxGeometry y="300" width="800" height="130" as="geometry" />
        </mxCell>
        <mxCell id="qptbaauTguZUWlIUalm4-21" value="" style="shape=partialRectangle;html=1;whiteSpace=wrap;connectable=0;strokeColor=inherit;overflow=hidden;fillColor=none;top=0;left=0;bottom=0;right=0;pointerEvents=1;fontSize=16;" parent="qptbaauTguZUWlIUalm4-20" vertex="1">
          <mxGeometry width="47" height="130" as="geometry">
            <mxRectangle width="47" height="130" as="alternateBounds" />
          </mxGeometry>
        </mxCell>
        <mxCell id="qptbaauTguZUWlIUalm4-22" value="" style="shape=partialRectangle;html=1;whiteSpace=wrap;connectable=0;strokeColor=inherit;overflow=hidden;fillColor=none;top=0;left=0;bottom=0;right=0;pointerEvents=1;fontSize=16;" parent="qptbaauTguZUWlIUalm4-20" vertex="1">
          <mxGeometry x="47" width="133" height="130" as="geometry">
            <mxRectangle width="133" height="130" as="alternateBounds" />
          </mxGeometry>
        </mxCell>
        <mxCell id="qptbaauTguZUWlIUalm4-23" value="" style="shape=partialRectangle;html=1;whiteSpace=wrap;connectable=0;strokeColor=inherit;overflow=hidden;fillColor=none;top=0;left=0;bottom=0;right=0;pointerEvents=1;fontSize=16;" parent="qptbaauTguZUWlIUalm4-20" vertex="1">
          <mxGeometry x="180" width="140" height="130" as="geometry">
            <mxRectangle width="140" height="130" as="alternateBounds" />
          </mxGeometry>
        </mxCell>
        <mxCell id="qptbaauTguZUWlIUalm4-24" value="" style="shape=partialRectangle;html=1;whiteSpace=wrap;connectable=0;strokeColor=inherit;overflow=hidden;fillColor=none;top=0;left=0;bottom=0;right=0;pointerEvents=1;fontSize=16;" parent="qptbaauTguZUWlIUalm4-20" vertex="1">
          <mxGeometry x="320" width="120" height="130" as="geometry">
            <mxRectangle width="120" height="130" as="alternateBounds" />
          </mxGeometry>
        </mxCell>
        <mxCell id="qptbaauTguZUWlIUalm4-29" style="shape=partialRectangle;html=1;whiteSpace=wrap;connectable=0;strokeColor=inherit;overflow=hidden;fillColor=none;top=0;left=0;bottom=0;right=0;pointerEvents=1;fontSize=16;" parent="qptbaauTguZUWlIUalm4-20" vertex="1">
          <mxGeometry x="440" width="360" height="130" as="geometry">
            <mxRectangle width="360" height="130" as="alternateBounds" />
          </mxGeometry>
        </mxCell>
        <mxCell id="qptbaauTguZUWlIUalm4-31" value="FSMO Roles" style="shape=table;startSize=30;container=1;collapsible=0;childLayout=tableLayout;strokeColor=default;fontSize=16;" parent="1" vertex="1">
          <mxGeometry x="1730" y="500" width="790.0000000000005" height="429.9999999999991" as="geometry" />
        </mxCell>
        <mxCell id="qptbaauTguZUWlIUalm4-32" value="" style="shape=tableRow;horizontal=0;startSize=0;swimlaneHead=0;swimlaneBody=0;strokeColor=inherit;top=0;left=0;bottom=0;right=0;collapsible=0;dropTarget=0;fillColor=none;points=[[0,0.5],[1,0.5]];portConstraint=eastwest;fontSize=16;" parent="qptbaauTguZUWlIUalm4-31" vertex="1">
          <mxGeometry y="30" width="790.0000000000005" height="40" as="geometry" />
        </mxCell>
        <mxCell id="qptbaauTguZUWlIUalm4-34" value="Role" style="shape=partialRectangle;html=1;whiteSpace=wrap;connectable=0;strokeColor=inherit;overflow=hidden;fillColor=none;top=0;left=0;bottom=0;right=0;pointerEvents=1;fontSize=16;" parent="qptbaauTguZUWlIUalm4-32" vertex="1">
          <mxGeometry width="150" height="40" as="geometry">
            <mxRectangle width="150" height="40" as="alternateBounds" />
          </mxGeometry>
        </mxCell>
        <mxCell id="qptbaauTguZUWlIUalm4-35" value="Host" style="shape=partialRectangle;html=1;whiteSpace=wrap;connectable=0;strokeColor=inherit;overflow=hidden;fillColor=none;top=0;left=0;bottom=0;right=0;pointerEvents=1;fontSize=16;" parent="qptbaauTguZUWlIUalm4-32" vertex="1">
          <mxGeometry x="150" width="180" height="40" as="geometry">
            <mxRectangle width="180" height="40" as="alternateBounds" />
          </mxGeometry>
        </mxCell>
        <mxCell id="qptbaauTguZUWlIUalm4-52" value="Drift?" style="shape=partialRectangle;html=1;whiteSpace=wrap;connectable=0;strokeColor=inherit;overflow=hidden;fillColor=none;top=0;left=0;bottom=0;right=0;pointerEvents=1;fontSize=16;" parent="qptbaauTguZUWlIUalm4-32" vertex="1">
          <mxGeometry x="330" width="150" height="40" as="geometry">
            <mxRectangle width="150" height="40" as="alternateBounds" />
          </mxGeometry>
        </mxCell>
        <mxCell id="qptbaauTguZUWlIUalm4-36" value="Description" style="shape=partialRectangle;html=1;whiteSpace=wrap;connectable=0;strokeColor=inherit;overflow=hidden;fillColor=none;top=0;left=0;bottom=0;right=0;pointerEvents=1;fontSize=16;" parent="qptbaauTguZUWlIUalm4-32" vertex="1">
          <mxGeometry x="480" width="310" height="40" as="geometry">
            <mxRectangle width="310" height="40" as="alternateBounds" />
          </mxGeometry>
        </mxCell>
        <mxCell id="qptbaauTguZUWlIUalm4-37" value="" style="shape=tableRow;horizontal=0;startSize=0;swimlaneHead=0;swimlaneBody=0;strokeColor=inherit;top=0;left=0;bottom=0;right=0;collapsible=0;dropTarget=0;fillColor=none;points=[[0,0.5],[1,0.5]];portConstraint=eastwest;fontSize=16;" parent="qptbaauTguZUWlIUalm4-31" vertex="1">
          <mxGeometry y="70" width="790.0000000000005" height="70" as="geometry" />
        </mxCell>
        <mxCell id="qptbaauTguZUWlIUalm4-39" value="PDCe" style="shape=partialRectangle;html=1;whiteSpace=wrap;connectable=0;strokeColor=inherit;overflow=hidden;fillColor=none;top=0;left=0;bottom=0;right=0;pointerEvents=1;fontSize=16;" parent="qptbaauTguZUWlIUalm4-37" vertex="1">
          <mxGeometry width="150" height="70" as="geometry">
            <mxRectangle width="150" height="70" as="alternateBounds" />
          </mxGeometry>
        </mxCell>
        <mxCell id="qptbaauTguZUWlIUalm4-40" value="Core RWDC" style="shape=partialRectangle;html=1;whiteSpace=wrap;connectable=0;strokeColor=inherit;overflow=hidden;fillColor=none;top=0;left=0;bottom=0;right=0;pointerEvents=1;fontSize=16;" parent="qptbaauTguZUWlIUalm4-37" vertex="1">
          <mxGeometry x="150" width="180" height="70" as="geometry">
            <mxRectangle width="180" height="70" as="alternateBounds" />
          </mxGeometry>
        </mxCell>
        <mxCell id="qptbaauTguZUWlIUalm4-53" value="NO" style="shape=partialRectangle;html=1;whiteSpace=wrap;connectable=0;strokeColor=inherit;overflow=hidden;fillColor=none;top=0;left=0;bottom=0;right=0;pointerEvents=1;fontSize=16;" parent="qptbaauTguZUWlIUalm4-37" vertex="1">
          <mxGeometry x="330" width="150" height="70" as="geometry">
            <mxRectangle width="150" height="70" as="alternateBounds" />
          </mxGeometry>
        </mxCell>
        <mxCell id="qptbaauTguZUWlIUalm4-41" value="Responsible for synchronizing time in the enterprise" style="shape=partialRectangle;html=1;whiteSpace=wrap;connectable=0;strokeColor=inherit;overflow=hidden;fillColor=none;top=0;left=0;bottom=0;right=0;pointerEvents=1;fontSize=16;" parent="qptbaauTguZUWlIUalm4-37" vertex="1">
          <mxGeometry x="480" width="310" height="70" as="geometry">
            <mxRectangle width="310" height="70" as="alternateBounds" />
          </mxGeometry>
        </mxCell>
        <mxCell id="qptbaauTguZUWlIUalm4-42" value="" style="shape=tableRow;horizontal=0;startSize=0;swimlaneHead=0;swimlaneBody=0;strokeColor=inherit;top=0;left=0;bottom=0;right=0;collapsible=0;dropTarget=0;fillColor=none;points=[[0,0.5],[1,0.5]];portConstraint=eastwest;fontSize=16;" parent="qptbaauTguZUWlIUalm4-31" vertex="1">
          <mxGeometry y="140" width="790.0000000000005" height="80" as="geometry" />
        </mxCell>
        <mxCell id="qptbaauTguZUWlIUalm4-44" value="Schema Master" style="shape=partialRectangle;html=1;whiteSpace=wrap;connectable=0;strokeColor=inherit;overflow=hidden;fillColor=none;top=0;left=0;bottom=0;right=0;pointerEvents=1;fontSize=16;" parent="qptbaauTguZUWlIUalm4-42" vertex="1">
          <mxGeometry width="150" height="80" as="geometry">
            <mxRectangle width="150" height="80" as="alternateBounds" />
          </mxGeometry>
        </mxCell>
        <mxCell id="qptbaauTguZUWlIUalm4-45" value="Core RWDC" style="shape=partialRectangle;html=1;whiteSpace=wrap;connectable=0;strokeColor=inherit;overflow=hidden;fillColor=none;top=0;left=0;bottom=0;right=0;pointerEvents=1;fontSize=16;" parent="qptbaauTguZUWlIUalm4-42" vertex="1">
          <mxGeometry x="150" width="180" height="80" as="geometry">
            <mxRectangle width="180" height="80" as="alternateBounds" />
          </mxGeometry>
        </mxCell>
        <mxCell id="qptbaauTguZUWlIUalm4-54" value="NO" style="shape=partialRectangle;html=1;whiteSpace=wrap;connectable=0;strokeColor=inherit;overflow=hidden;fillColor=none;top=0;left=0;bottom=0;right=0;pointerEvents=1;fontSize=16;" parent="qptbaauTguZUWlIUalm4-42" vertex="1">
          <mxGeometry x="330" width="150" height="80" as="geometry">
            <mxRectangle width="150" height="80" as="alternateBounds" />
          </mxGeometry>
        </mxCell>
        <mxCell id="qptbaauTguZUWlIUalm4-46" value="Schema Master controls updates to the directory schema" style="shape=partialRectangle;html=1;whiteSpace=wrap;connectable=0;strokeColor=inherit;overflow=hidden;fillColor=none;top=0;left=0;bottom=0;right=0;pointerEvents=1;fontSize=16;" parent="qptbaauTguZUWlIUalm4-42" vertex="1">
          <mxGeometry x="480" width="310" height="80" as="geometry">
            <mxRectangle width="310" height="80" as="alternateBounds" />
          </mxGeometry>
        </mxCell>
        <mxCell id="qptbaauTguZUWlIUalm4-47" style="shape=tableRow;horizontal=0;startSize=0;swimlaneHead=0;swimlaneBody=0;strokeColor=inherit;top=0;left=0;bottom=0;right=0;collapsible=0;dropTarget=0;fillColor=none;points=[[0,0.5],[1,0.5]];portConstraint=eastwest;fontSize=16;" parent="qptbaauTguZUWlIUalm4-31" vertex="1">
          <mxGeometry y="220" width="790.0000000000005" height="80" as="geometry" />
        </mxCell>
        <mxCell id="qptbaauTguZUWlIUalm4-49" value="Domain Naming Master" style="shape=partialRectangle;html=1;whiteSpace=wrap;connectable=0;strokeColor=inherit;overflow=hidden;fillColor=none;top=0;left=0;bottom=0;right=0;pointerEvents=1;fontSize=16;" parent="qptbaauTguZUWlIUalm4-47" vertex="1">
          <mxGeometry width="150" height="80" as="geometry">
            <mxRectangle width="150" height="80" as="alternateBounds" />
          </mxGeometry>
        </mxCell>
        <mxCell id="qptbaauTguZUWlIUalm4-50" value="Core RWDC" style="shape=partialRectangle;html=1;whiteSpace=wrap;connectable=0;strokeColor=inherit;overflow=hidden;fillColor=none;top=0;left=0;bottom=0;right=0;pointerEvents=1;fontSize=16;" parent="qptbaauTguZUWlIUalm4-47" vertex="1">
          <mxGeometry x="150" width="180" height="80" as="geometry">
            <mxRectangle width="180" height="80" as="alternateBounds" />
          </mxGeometry>
        </mxCell>
        <mxCell id="qptbaauTguZUWlIUalm4-55" value="NO" style="shape=partialRectangle;html=1;whiteSpace=wrap;connectable=0;strokeColor=inherit;overflow=hidden;fillColor=none;top=0;left=0;bottom=0;right=0;pointerEvents=1;fontSize=16;" parent="qptbaauTguZUWlIUalm4-47" vertex="1">
          <mxGeometry x="330" width="150" height="80" as="geometry">
            <mxRectangle width="150" height="80" as="alternateBounds" />
          </mxGeometry>
        </mxCell>
        <mxCell id="qptbaauTguZUWlIUalm4-51" value="Responsible for making forest-wide changes to the domain name space; the only DC that can add or remove a domain from the directory." style="shape=partialRectangle;html=1;whiteSpace=wrap;connectable=0;strokeColor=inherit;overflow=hidden;fillColor=none;top=0;left=0;bottom=0;right=0;pointerEvents=1;fontSize=16;" parent="qptbaauTguZUWlIUalm4-47" vertex="1">
          <mxGeometry x="480" width="310" height="80" as="geometry">
            <mxRectangle width="310" height="80" as="alternateBounds" />
          </mxGeometry>
        </mxCell>
        <mxCell id="qptbaauTguZUWlIUalm4-61" style="shape=tableRow;horizontal=0;startSize=0;swimlaneHead=0;swimlaneBody=0;strokeColor=inherit;top=0;left=0;bottom=0;right=0;collapsible=0;dropTarget=0;fillColor=none;points=[[0,0.5],[1,0.5]];portConstraint=eastwest;fontSize=16;" parent="qptbaauTguZUWlIUalm4-31" vertex="1">
          <mxGeometry y="300" width="790.0000000000005" height="60" as="geometry" />
        </mxCell>
        <mxCell id="qptbaauTguZUWlIUalm4-62" value="RID Master" style="shape=partialRectangle;html=1;whiteSpace=wrap;connectable=0;strokeColor=inherit;overflow=hidden;fillColor=none;top=0;left=0;bottom=0;right=0;pointerEvents=1;fontSize=16;" parent="qptbaauTguZUWlIUalm4-61" vertex="1">
          <mxGeometry width="150" height="60" as="geometry">
            <mxRectangle width="150" height="60" as="alternateBounds" />
          </mxGeometry>
        </mxCell>
        <mxCell id="qptbaauTguZUWlIUalm4-63" value="Core RWDC" style="shape=partialRectangle;html=1;whiteSpace=wrap;connectable=0;strokeColor=inherit;overflow=hidden;fillColor=none;top=0;left=0;bottom=0;right=0;pointerEvents=1;fontSize=16;" parent="qptbaauTguZUWlIUalm4-61" vertex="1">
          <mxGeometry x="150" width="180" height="60" as="geometry">
            <mxRectangle width="180" height="60" as="alternateBounds" />
          </mxGeometry>
        </mxCell>
        <mxCell id="qptbaauTguZUWlIUalm4-64" value="NO" style="shape=partialRectangle;html=1;whiteSpace=wrap;connectable=0;strokeColor=inherit;overflow=hidden;fillColor=none;top=0;left=0;bottom=0;right=0;pointerEvents=1;fontSize=16;" parent="qptbaauTguZUWlIUalm4-61" vertex="1">
          <mxGeometry x="330" width="150" height="60" as="geometry">
            <mxRectangle width="150" height="60" as="alternateBounds" />
          </mxGeometry>
        </mxCell>
        <mxCell id="qptbaauTguZUWlIUalm4-65" value="Processes RID Pool requests and moves objects between domains" style="shape=partialRectangle;html=1;whiteSpace=wrap;connectable=0;strokeColor=inherit;overflow=hidden;fillColor=none;top=0;left=0;bottom=0;right=0;pointerEvents=1;fontSize=16;" parent="qptbaauTguZUWlIUalm4-61" vertex="1">
          <mxGeometry x="480" width="310" height="60" as="geometry">
            <mxRectangle width="310" height="60" as="alternateBounds" />
          </mxGeometry>
        </mxCell>
        <mxCell id="qptbaauTguZUWlIUalm4-56" style="shape=tableRow;horizontal=0;startSize=0;swimlaneHead=0;swimlaneBody=0;strokeColor=inherit;top=0;left=0;bottom=0;right=0;collapsible=0;dropTarget=0;fillColor=none;points=[[0,0.5],[1,0.5]];portConstraint=eastwest;fontSize=16;" parent="qptbaauTguZUWlIUalm4-31" vertex="1">
          <mxGeometry y="360" width="790.0000000000005" height="70" as="geometry" />
        </mxCell>
        <mxCell id="qptbaauTguZUWlIUalm4-57" value="Infrastructure Master" style="shape=partialRectangle;html=1;whiteSpace=wrap;connectable=0;strokeColor=inherit;overflow=hidden;fillColor=none;top=0;left=0;bottom=0;right=0;pointerEvents=1;fontSize=16;" parent="qptbaauTguZUWlIUalm4-56" vertex="1">
          <mxGeometry width="150" height="70" as="geometry">
            <mxRectangle width="150" height="70" as="alternateBounds" />
          </mxGeometry>
        </mxCell>
        <mxCell id="qptbaauTguZUWlIUalm4-58" value="Core RWDC" style="shape=partialRectangle;html=1;whiteSpace=wrap;connectable=0;strokeColor=inherit;overflow=hidden;fillColor=none;top=0;left=0;bottom=0;right=0;pointerEvents=1;fontSize=16;" parent="qptbaauTguZUWlIUalm4-56" vertex="1">
          <mxGeometry x="150" width="180" height="70" as="geometry">
            <mxRectangle width="180" height="70" as="alternateBounds" />
          </mxGeometry>
        </mxCell>
        <mxCell id="qptbaauTguZUWlIUalm4-59" value="NO" style="shape=partialRectangle;html=1;whiteSpace=wrap;connectable=0;strokeColor=inherit;overflow=hidden;fillColor=none;top=0;left=0;bottom=0;right=0;pointerEvents=1;fontSize=16;" parent="qptbaauTguZUWlIUalm4-56" vertex="1">
          <mxGeometry x="330" width="150" height="70" as="geometry">
            <mxRectangle width="150" height="70" as="alternateBounds" />
          </mxGeometry>
        </mxCell>
        <mxCell id="qptbaauTguZUWlIUalm4-60" value="Updates and maintains object SIDs and DNs.&lt;br&gt;All DCs will host Global Catalog" style="shape=partialRectangle;html=1;whiteSpace=wrap;connectable=0;strokeColor=inherit;overflow=hidden;fillColor=none;top=0;left=0;bottom=0;right=0;pointerEvents=1;fontSize=16;" parent="qptbaauTguZUWlIUalm4-56" vertex="1">
          <mxGeometry x="480" width="310" height="70" as="geometry">
            <mxRectangle width="310" height="70" as="alternateBounds" />
          </mxGeometry>
        </mxCell>
        <mxCell id="zZ8oq68cj5SXe_fZ_nNa-1" value="Identity Services Ecosystem" style="shape=table;startSize=30;container=1;collapsible=0;childLayout=tableLayout;strokeColor=default;fontSize=16;" vertex="1" parent="1">
          <mxGeometry x="20" y="20" width="776" height="110" as="geometry" />
        </mxCell>
        <mxCell id="zZ8oq68cj5SXe_fZ_nNa-2" value="" style="shape=tableRow;horizontal=0;startSize=0;swimlaneHead=0;swimlaneBody=0;strokeColor=inherit;top=0;left=0;bottom=0;right=0;collapsible=0;dropTarget=0;fillColor=none;points=[[0,0.5],[1,0.5]];portConstraint=eastwest;fontSize=16;" vertex="1" parent="zZ8oq68cj5SXe_fZ_nNa-1">
          <mxGeometry y="30" width="776" height="80" as="geometry" />
        </mxCell>
        <mxCell id="zZ8oq68cj5SXe_fZ_nNa-3" value="Subsystem Code" style="shape=partialRectangle;html=1;whiteSpace=wrap;connectable=0;strokeColor=inherit;overflow=hidden;fillColor=none;top=0;left=0;bottom=0;right=0;pointerEvents=1;fontSize=16;" vertex="1" parent="zZ8oq68cj5SXe_fZ_nNa-2">
          <mxGeometry width="182" height="80" as="geometry">
            <mxRectangle width="182" height="80" as="alternateBounds" />
          </mxGeometry>
        </mxCell>
        <mxCell id="zZ8oq68cj5SXe_fZ_nNa-4" value="ad" style="shape=partialRectangle;html=1;whiteSpace=wrap;connectable=0;strokeColor=inherit;overflow=hidden;fillColor=none;top=0;left=0;bottom=0;right=0;pointerEvents=1;fontSize=16;" vertex="1" parent="zZ8oq68cj5SXe_fZ_nNa-2">
          <mxGeometry x="182" width="98" height="80" as="geometry">
            <mxRectangle width="98" height="80" as="alternateBounds" />
          </mxGeometry>
        </mxCell>
        <mxCell id="zZ8oq68cj5SXe_fZ_nNa-37" value="Component Codes" style="shape=partialRectangle;html=1;whiteSpace=wrap;connectable=0;strokeColor=inherit;overflow=hidden;fillColor=none;top=0;left=0;bottom=0;right=0;pointerEvents=1;fontSize=16;" vertex="1" parent="zZ8oq68cj5SXe_fZ_nNa-2">
          <mxGeometry x="280" width="190" height="80" as="geometry">
            <mxRectangle width="190" height="80" as="alternateBounds" />
          </mxGeometry>
        </mxCell>
        <mxCell id="zZ8oq68cj5SXe_fZ_nNa-38" value="Read Write Domain Controller = rwdc&lt;div&gt;Read Only Domain Controller = rodc&lt;/div&gt;" style="shape=partialRectangle;html=1;whiteSpace=wrap;connectable=0;strokeColor=inherit;overflow=hidden;fillColor=none;top=0;left=0;bottom=0;right=0;pointerEvents=1;fontSize=16;" vertex="1" parent="zZ8oq68cj5SXe_fZ_nNa-2">
          <mxGeometry x="470" width="306" height="80" as="geometry">
            <mxRectangle width="306" height="80" as="alternateBounds" />
          </mxGeometry>
        </mxCell>
      </root>
    </mxGraphModel>
  </diagram>
  <diagram id="RdZ9LkvT3Lhdr4frHEbB" name="Page-2">
    <mxGraphModel dx="2578" dy="640" grid="1" gridSize="10" guides="1" tooltips="1" connect="1" arrows="1" fold="1" page="1" pageScale="1" pageWidth="1100" pageHeight="850" math="0" shadow="0">
      <root>
        <mxCell id="0" />
        <mxCell id="1" parent="0" />
        <mxCell id="WMdcypEWE5nW1jk3AL-A-3" value="" style="rounded=0;whiteSpace=wrap;html=1;strokeColor=none;fillStyle=solid;fillColor=#6D6D6D;" parent="1" vertex="1">
          <mxGeometry x="2830" y="1260" width="150" height="230" as="geometry" />
        </mxCell>
        <mxCell id="I-CdvSnA8jOuuN02367H-2" value="Forest OU Structure" style="text;html=1;align=center;verticalAlign=middle;whiteSpace=wrap;rounded=0;fontSize=18;fontStyle=1" parent="1" vertex="1">
          <mxGeometry y="860" width="370" height="40" as="geometry" />
        </mxCell>
        <mxCell id="I-CdvSnA8jOuuN02367H-3" value="Forest Root" style="rounded=1;whiteSpace=wrap;html=1;" parent="1" vertex="1">
          <mxGeometry x="2820" y="850" width="120" height="60" as="geometry" />
        </mxCell>
        <mxCell id="I-CdvSnA8jOuuN02367H-4" value="ops.indef.space" style="rounded=1;whiteSpace=wrap;html=1;glass=0;shadow=0;" parent="1" vertex="1">
          <mxGeometry x="2670" y="950" width="120" height="60" as="geometry" />
        </mxCell>
        <mxCell id="I-CdvSnA8jOuuN02367H-5" value="dmz.indef.space" style="rounded=0;whiteSpace=wrap;html=1;" parent="1" vertex="1">
          <mxGeometry x="2995" y="960" width="120" height="60" as="geometry" />
        </mxCell>
        <mxCell id="I-CdvSnA8jOuuN02367H-6" value="Infrastructure Branch" style="ellipse;whiteSpace=wrap;html=1;" parent="1" vertex="1">
          <mxGeometry x="735" y="1080" width="120" height="80" as="geometry" />
        </mxCell>
        <mxCell id="I-CdvSnA8jOuuN02367H-7" value="Identities Branch" style="ellipse;whiteSpace=wrap;html=1;" parent="1" vertex="1">
          <mxGeometry x="1775" y="1100" width="120" height="80" as="geometry" />
        </mxCell>
        <mxCell id="I-CdvSnA8jOuuN02367H-8" value="Policies Branch" style="ellipse;whiteSpace=wrap;html=1;" parent="1" vertex="1">
          <mxGeometry x="2550" y="1090" width="120" height="80" as="geometry" />
        </mxCell>
        <mxCell id="I-CdvSnA8jOuuN02367H-9" value="Windows" style="rounded=0;whiteSpace=wrap;html=1;" parent="1" vertex="1">
          <mxGeometry x="490" y="1529" width="100" height="50" as="geometry" />
        </mxCell>
        <mxCell id="I-CdvSnA8jOuuN02367H-10" value="Linux" style="rounded=0;whiteSpace=wrap;html=1;" parent="1" vertex="1">
          <mxGeometry x="610" y="1529" width="100" height="50" as="geometry" />
        </mxCell>
        <mxCell id="I-CdvSnA8jOuuN02367H-11" value="Windows" style="rounded=0;whiteSpace=wrap;html=1;" parent="1" vertex="1">
          <mxGeometry x="250" y="1529" width="100" height="50" as="geometry" />
        </mxCell>
        <mxCell id="I-CdvSnA8jOuuN02367H-12" value="Linux" style="rounded=0;whiteSpace=wrap;html=1;" parent="1" vertex="1">
          <mxGeometry x="370" y="1529" width="100" height="50" as="geometry" />
        </mxCell>
        <mxCell id="I-CdvSnA8jOuuN02367H-13" value="Junos" style="rounded=0;whiteSpace=wrap;html=1;" parent="1" vertex="1">
          <mxGeometry x="10" y="1529" width="100" height="50" as="geometry" />
        </mxCell>
        <mxCell id="I-CdvSnA8jOuuN02367H-14" value="Linux" style="rounded=0;whiteSpace=wrap;html=1;" parent="1" vertex="1">
          <mxGeometry x="130" y="1529" width="98" height="50" as="geometry" />
        </mxCell>
        <mxCell id="I-CdvSnA8jOuuN02367H-15" value="&amp;lt;Service&amp;gt;" style="rounded=0;whiteSpace=wrap;html=1;" parent="1" vertex="1">
          <mxGeometry x="250" y="1609" width="100" height="50" as="geometry" />
        </mxCell>
        <mxCell id="I-CdvSnA8jOuuN02367H-16" value="&amp;lt;Service&amp;gt;" style="rounded=0;whiteSpace=wrap;html=1;" parent="1" vertex="1">
          <mxGeometry x="370" y="1609" width="100" height="50" as="geometry" />
        </mxCell>
        <mxCell id="I-CdvSnA8jOuuN02367H-17" value="&amp;lt;Service&amp;gt;" style="rounded=0;whiteSpace=wrap;html=1;" parent="1" vertex="1">
          <mxGeometry x="490" y="1609" width="100" height="50" as="geometry" />
        </mxCell>
        <mxCell id="I-CdvSnA8jOuuN02367H-18" value="&amp;lt;Service&amp;gt;" style="rounded=0;whiteSpace=wrap;html=1;" parent="1" vertex="1">
          <mxGeometry x="610" y="1609" width="100" height="50" as="geometry" />
        </mxCell>
        <mxCell id="I-CdvSnA8jOuuN02367H-19" value="&amp;lt;Service&amp;gt;" style="rounded=0;whiteSpace=wrap;html=1;" parent="1" vertex="1">
          <mxGeometry x="10" y="1609" width="100" height="50" as="geometry" />
        </mxCell>
        <mxCell id="I-CdvSnA8jOuuN02367H-20" value="&amp;lt;Service&amp;gt;" style="rounded=0;whiteSpace=wrap;html=1;" parent="1" vertex="1">
          <mxGeometry x="130" y="1609" width="100" height="50" as="geometry" />
        </mxCell>
        <mxCell id="I-CdvSnA8jOuuN02367H-21" value="Windows" style="rounded=0;whiteSpace=wrap;html=1;" parent="1" vertex="1">
          <mxGeometry x="730" y="1529" width="100" height="50" as="geometry" />
        </mxCell>
        <mxCell id="I-CdvSnA8jOuuN02367H-22" value="Linux" style="rounded=0;whiteSpace=wrap;html=1;" parent="1" vertex="1">
          <mxGeometry x="850" y="1529" width="100" height="50" as="geometry" />
        </mxCell>
        <mxCell id="I-CdvSnA8jOuuN02367H-23" value="Junos" style="rounded=0;whiteSpace=wrap;html=1;" parent="1" vertex="1">
          <mxGeometry x="970" y="1529" width="100" height="50" as="geometry" />
        </mxCell>
        <mxCell id="I-CdvSnA8jOuuN02367H-24" value="" style="edgeStyle=orthogonalEdgeStyle;rounded=0;orthogonalLoop=1;jettySize=auto;html=1;endArrow=none;endFill=0;" parent="1" edge="1">
          <mxGeometry relative="1" as="geometry">
            <mxPoint x="1445" y="1579" as="sourcePoint" />
            <mxPoint x="1445" y="1599" as="targetPoint" />
          </mxGeometry>
        </mxCell>
        <mxCell id="I-CdvSnA8jOuuN02367H-25" value="Privileged-Users" style="rounded=0;whiteSpace=wrap;html=1;" parent="1" vertex="1">
          <mxGeometry x="1386" y="1519" width="100" height="50" as="geometry" />
        </mxCell>
        <mxCell id="I-CdvSnA8jOuuN02367H-26" value="Regular-Users" style="rounded=0;whiteSpace=wrap;html=1;" parent="1" vertex="1">
          <mxGeometry x="1525" y="1519" width="100" height="50" as="geometry" />
        </mxCell>
        <mxCell id="I-CdvSnA8jOuuN02367H-27" value="Service-Accounts" style="rounded=0;whiteSpace=wrap;html=1;" parent="1" vertex="1">
          <mxGeometry x="1665" y="1519" width="100" height="50" as="geometry" />
        </mxCell>
        <mxCell id="I-CdvSnA8jOuuN02367H-28" value="&amp;lt;Service Admins&amp;gt;" style="rounded=0;whiteSpace=wrap;html=1;" parent="1" vertex="1">
          <mxGeometry x="1386" y="1599" width="100" height="50" as="geometry" />
        </mxCell>
        <mxCell id="I-CdvSnA8jOuuN02367H-29" value="&amp;lt;Service&amp;gt;" style="rounded=0;whiteSpace=wrap;html=1;" parent="1" vertex="1">
          <mxGeometry x="1665" y="1599" width="100" height="50" as="geometry" />
        </mxCell>
        <mxCell id="I-CdvSnA8jOuuN02367H-30" value="gMSAs" style="rounded=0;whiteSpace=wrap;html=1;" parent="1" vertex="1">
          <mxGeometry x="1805" y="1519" width="100" height="50" as="geometry" />
        </mxCell>
        <mxCell id="I-CdvSnA8jOuuN02367H-31" value="&amp;lt;Service&amp;gt;" style="rounded=0;whiteSpace=wrap;html=1;" parent="1" vertex="1">
          <mxGeometry x="1805" y="1599" width="100" height="50" as="geometry" />
        </mxCell>
        <mxCell id="I-CdvSnA8jOuuN02367H-32" value="Windows-Anchor" style="rounded=0;whiteSpace=wrap;html=1;" parent="1" vertex="1">
          <mxGeometry x="2340" y="1519" width="100" height="50" as="geometry" />
        </mxCell>
        <mxCell id="I-CdvSnA8jOuuN02367H-33" value="Linux-Anchor" style="rounded=0;whiteSpace=wrap;html=1;" parent="1" vertex="1">
          <mxGeometry x="2480" y="1519" width="100" height="50" as="geometry" />
        </mxCell>
        <mxCell id="I-CdvSnA8jOuuN02367H-34" value="Junos-Anchor" style="rounded=0;whiteSpace=wrap;html=1;" parent="1" vertex="1">
          <mxGeometry x="2620" y="1519" width="100" height="50" as="geometry" />
        </mxCell>
        <mxCell id="I-CdvSnA8jOuuN02367H-35" value="Users-Anchor" style="rounded=0;whiteSpace=wrap;html=1;" parent="1" vertex="1">
          <mxGeometry x="2760" y="1519" width="100" height="50" as="geometry" />
        </mxCell>
        <mxCell id="I-CdvSnA8jOuuN02367H-36" value="&amp;lt;Anchor&amp;gt;" style="rounded=0;whiteSpace=wrap;html=1;" parent="1" vertex="1">
          <mxGeometry x="2340" y="1599" width="100" height="50" as="geometry" />
        </mxCell>
        <mxCell id="I-CdvSnA8jOuuN02367H-37" value="&amp;lt;Anchor&amp;gt;" style="rounded=0;whiteSpace=wrap;html=1;" parent="1" vertex="1">
          <mxGeometry x="2480" y="1599" width="100" height="50" as="geometry" />
        </mxCell>
        <mxCell id="I-CdvSnA8jOuuN02367H-38" value="&amp;lt;Anchor&amp;gt;" style="rounded=0;whiteSpace=wrap;html=1;" parent="1" vertex="1">
          <mxGeometry x="2620" y="1599" width="100" height="50" as="geometry" />
        </mxCell>
        <mxCell id="I-CdvSnA8jOuuN02367H-39" value="&amp;lt;Anchor&amp;gt;" style="rounded=0;whiteSpace=wrap;html=1;" parent="1" vertex="1">
          <mxGeometry x="2760" y="1599" width="100" height="50" as="geometry" />
        </mxCell>
        <mxCell id="I-CdvSnA8jOuuN02367H-40" value="" style="endArrow=none;html=1;rounded=0;exitX=0.5;exitY=0;exitDx=0;exitDy=0;entryX=0.5;entryY=1;entryDx=0;entryDy=0;" parent="1" source="I-CdvSnA8jOuuN02367H-4" target="I-CdvSnA8jOuuN02367H-3" edge="1">
          <mxGeometry width="50" height="50" relative="1" as="geometry">
            <mxPoint x="1600" y="1190" as="sourcePoint" />
            <mxPoint x="1650" y="1140" as="targetPoint" />
          </mxGeometry>
        </mxCell>
        <mxCell id="I-CdvSnA8jOuuN02367H-41" value="" style="endArrow=none;html=1;rounded=0;exitX=0.5;exitY=1;exitDx=0;exitDy=0;entryX=0.5;entryY=0;entryDx=0;entryDy=0;" parent="1" source="I-CdvSnA8jOuuN02367H-3" target="I-CdvSnA8jOuuN02367H-5" edge="1">
          <mxGeometry width="50" height="50" relative="1" as="geometry">
            <mxPoint x="2840" y="1030" as="sourcePoint" />
            <mxPoint x="4355" y="980" as="targetPoint" />
          </mxGeometry>
        </mxCell>
        <mxCell id="I-CdvSnA8jOuuN02367H-42" value="" style="endArrow=none;html=1;rounded=0;entryX=0.5;entryY=1;entryDx=0;entryDy=0;exitX=0.5;exitY=0;exitDx=0;exitDy=0;" parent="1" source="I-CdvSnA8jOuuN02367H-8" target="I-CdvSnA8jOuuN02367H-4" edge="1">
          <mxGeometry width="50" height="50" relative="1" as="geometry">
            <mxPoint x="2800" y="1190" as="sourcePoint" />
            <mxPoint x="2850" y="1140" as="targetPoint" />
          </mxGeometry>
        </mxCell>
        <mxCell id="I-CdvSnA8jOuuN02367H-43" value="" style="endArrow=none;html=1;rounded=0;exitX=0.5;exitY=0;exitDx=0;exitDy=0;entryX=0.5;entryY=1;entryDx=0;entryDy=0;" parent="1" source="I-CdvSnA8jOuuN02367H-7" target="I-CdvSnA8jOuuN02367H-4" edge="1">
          <mxGeometry width="50" height="50" relative="1" as="geometry">
            <mxPoint x="2700" y="1170" as="sourcePoint" />
            <mxPoint x="2730" y="1020" as="targetPoint" />
          </mxGeometry>
        </mxCell>
        <mxCell id="I-CdvSnA8jOuuN02367H-44" value="" style="endArrow=none;html=1;rounded=0;exitX=0.5;exitY=0;exitDx=0;exitDy=0;entryX=0.5;entryY=1;entryDx=0;entryDy=0;" parent="1" source="I-CdvSnA8jOuuN02367H-6" target="I-CdvSnA8jOuuN02367H-4" edge="1">
          <mxGeometry width="50" height="50" relative="1" as="geometry">
            <mxPoint x="2140" y="1100" as="sourcePoint" />
            <mxPoint x="2720" y="1020" as="targetPoint" />
          </mxGeometry>
        </mxCell>
        <mxCell id="I-CdvSnA8jOuuN02367H-45" value="" style="endArrow=none;html=1;rounded=0;exitX=0;exitY=0.5;exitDx=0;exitDy=0;entryX=0.5;entryY=1;entryDx=0;entryDy=0;" parent="1" source="I-CdvSnA8jOuuN02367H-114" target="I-CdvSnA8jOuuN02367H-8" edge="1">
          <mxGeometry width="50" height="50" relative="1" as="geometry">
            <mxPoint x="2610" y="1400" as="sourcePoint" />
            <mxPoint x="3190" y="1070" as="targetPoint" />
          </mxGeometry>
        </mxCell>
        <mxCell id="I-CdvSnA8jOuuN02367H-46" value="" style="endArrow=none;html=1;rounded=0;exitX=0.5;exitY=0;exitDx=0;exitDy=0;entryX=1;entryY=0.5;entryDx=0;entryDy=0;" parent="1" source="I-CdvSnA8jOuuN02367H-32" target="I-CdvSnA8jOuuN02367H-114" edge="1">
          <mxGeometry width="50" height="50" relative="1" as="geometry">
            <mxPoint x="2630" y="1510" as="sourcePoint" />
            <mxPoint x="2610" y="1460" as="targetPoint" />
          </mxGeometry>
        </mxCell>
        <mxCell id="I-CdvSnA8jOuuN02367H-47" value="" style="endArrow=none;html=1;rounded=0;exitX=0.5;exitY=0;exitDx=0;exitDy=0;entryX=1;entryY=0.5;entryDx=0;entryDy=0;" parent="1" source="I-CdvSnA8jOuuN02367H-33" target="I-CdvSnA8jOuuN02367H-114" edge="1">
          <mxGeometry width="50" height="50" relative="1" as="geometry">
            <mxPoint x="2780" y="1480" as="sourcePoint" />
            <mxPoint x="2610" y="1460" as="targetPoint" />
          </mxGeometry>
        </mxCell>
        <mxCell id="I-CdvSnA8jOuuN02367H-48" value="" style="endArrow=none;html=1;rounded=0;exitX=0.5;exitY=0;exitDx=0;exitDy=0;entryX=1;entryY=0.5;entryDx=0;entryDy=0;" parent="1" source="I-CdvSnA8jOuuN02367H-34" target="I-CdvSnA8jOuuN02367H-114" edge="1">
          <mxGeometry width="50" height="50" relative="1" as="geometry">
            <mxPoint x="2720" y="1480" as="sourcePoint" />
            <mxPoint x="2610" y="1460" as="targetPoint" />
          </mxGeometry>
        </mxCell>
        <mxCell id="I-CdvSnA8jOuuN02367H-49" value="" style="endArrow=none;html=1;rounded=0;exitX=0.5;exitY=0;exitDx=0;exitDy=0;entryX=1;entryY=0.5;entryDx=0;entryDy=0;" parent="1" source="I-CdvSnA8jOuuN02367H-35" target="I-CdvSnA8jOuuN02367H-114" edge="1">
          <mxGeometry width="50" height="50" relative="1" as="geometry">
            <mxPoint x="2790" y="1500" as="sourcePoint" />
            <mxPoint x="2610" y="1460" as="targetPoint" />
          </mxGeometry>
        </mxCell>
        <mxCell id="I-CdvSnA8jOuuN02367H-50" value="" style="endArrow=none;html=1;rounded=0;exitX=0.5;exitY=0;exitDx=0;exitDy=0;entryX=0.5;entryY=1;entryDx=0;entryDy=0;" parent="1" source="I-CdvSnA8jOuuN02367H-39" target="I-CdvSnA8jOuuN02367H-35" edge="1">
          <mxGeometry width="50" height="50" relative="1" as="geometry">
            <mxPoint x="3050" y="1439" as="sourcePoint" />
            <mxPoint x="2840" y="1419" as="targetPoint" />
          </mxGeometry>
        </mxCell>
        <mxCell id="I-CdvSnA8jOuuN02367H-51" value="" style="endArrow=none;html=1;rounded=0;exitX=0.5;exitY=0;exitDx=0;exitDy=0;entryX=0.5;entryY=1;entryDx=0;entryDy=0;" parent="1" source="I-CdvSnA8jOuuN02367H-38" target="I-CdvSnA8jOuuN02367H-34" edge="1">
          <mxGeometry width="50" height="50" relative="1" as="geometry">
            <mxPoint x="2880" y="1609" as="sourcePoint" />
            <mxPoint x="2880" y="1589" as="targetPoint" />
          </mxGeometry>
        </mxCell>
        <mxCell id="I-CdvSnA8jOuuN02367H-52" value="" style="endArrow=none;html=1;rounded=0;exitX=0.5;exitY=0;exitDx=0;exitDy=0;entryX=0.5;entryY=1;entryDx=0;entryDy=0;" parent="1" source="I-CdvSnA8jOuuN02367H-37" target="I-CdvSnA8jOuuN02367H-33" edge="1">
          <mxGeometry width="50" height="50" relative="1" as="geometry">
            <mxPoint x="2760" y="1599" as="sourcePoint" />
            <mxPoint x="2760" y="1579" as="targetPoint" />
          </mxGeometry>
        </mxCell>
        <mxCell id="I-CdvSnA8jOuuN02367H-53" value="" style="endArrow=none;html=1;rounded=0;exitX=0.5;exitY=0;exitDx=0;exitDy=0;entryX=0.5;entryY=1;entryDx=0;entryDy=0;" parent="1" source="I-CdvSnA8jOuuN02367H-36" target="I-CdvSnA8jOuuN02367H-32" edge="1">
          <mxGeometry width="50" height="50" relative="1" as="geometry">
            <mxPoint x="2600" y="1629" as="sourcePoint" />
            <mxPoint x="2600" y="1609" as="targetPoint" />
          </mxGeometry>
        </mxCell>
        <mxCell id="I-CdvSnA8jOuuN02367H-54" value="" style="endArrow=none;html=1;rounded=0;exitX=0.5;exitY=0;exitDx=0;exitDy=0;entryX=0.5;entryY=1;entryDx=0;entryDy=0;" parent="1" source="I-CdvSnA8jOuuN02367H-31" target="I-CdvSnA8jOuuN02367H-30" edge="1">
          <mxGeometry width="50" height="50" relative="1" as="geometry">
            <mxPoint x="2085" y="1609" as="sourcePoint" />
            <mxPoint x="2085" y="1589" as="targetPoint" />
          </mxGeometry>
        </mxCell>
        <mxCell id="I-CdvSnA8jOuuN02367H-55" value="" style="endArrow=none;html=1;rounded=0;exitX=0.5;exitY=0;exitDx=0;exitDy=0;entryX=0.5;entryY=1;entryDx=0;entryDy=0;" parent="1" source="I-CdvSnA8jOuuN02367H-29" target="I-CdvSnA8jOuuN02367H-27" edge="1">
          <mxGeometry width="50" height="50" relative="1" as="geometry">
            <mxPoint x="1945" y="1629" as="sourcePoint" />
            <mxPoint x="1945" y="1609" as="targetPoint" />
          </mxGeometry>
        </mxCell>
        <mxCell id="I-CdvSnA8jOuuN02367H-56" value="" style="endArrow=none;html=1;rounded=0;exitX=0.5;exitY=0;exitDx=0;exitDy=0;entryX=0.5;entryY=1;entryDx=0;entryDy=0;" parent="1" target="I-CdvSnA8jOuuN02367H-85" edge="1">
          <mxGeometry width="50" height="50" relative="1" as="geometry">
            <mxPoint x="1445" y="1519" as="sourcePoint" />
            <mxPoint x="1625" y="1300" as="targetPoint" />
          </mxGeometry>
        </mxCell>
        <mxCell id="I-CdvSnA8jOuuN02367H-57" value="" style="endArrow=none;html=1;rounded=0;exitX=0.5;exitY=0;exitDx=0;exitDy=0;entryX=0.5;entryY=1;entryDx=0;entryDy=0;" parent="1" source="I-CdvSnA8jOuuN02367H-26" target="I-CdvSnA8jOuuN02367H-85" edge="1">
          <mxGeometry width="50" height="50" relative="1" as="geometry">
            <mxPoint x="1625" y="1550" as="sourcePoint" />
            <mxPoint x="1835" y="1330" as="targetPoint" />
          </mxGeometry>
        </mxCell>
        <mxCell id="I-CdvSnA8jOuuN02367H-58" value="" style="endArrow=none;html=1;rounded=0;exitX=0.5;exitY=0;exitDx=0;exitDy=0;entryX=0.5;entryY=1;entryDx=0;entryDy=0;" parent="1" source="I-CdvSnA8jOuuN02367H-27" target="I-CdvSnA8jOuuN02367H-85" edge="1">
          <mxGeometry width="50" height="50" relative="1" as="geometry">
            <mxPoint x="1735" y="1550" as="sourcePoint" />
            <mxPoint x="1805" y="1330" as="targetPoint" />
          </mxGeometry>
        </mxCell>
        <mxCell id="I-CdvSnA8jOuuN02367H-59" value="" style="endArrow=none;html=1;rounded=0;exitX=0.5;exitY=0;exitDx=0;exitDy=0;entryX=0.5;entryY=1;entryDx=0;entryDy=0;" parent="1" source="I-CdvSnA8jOuuN02367H-30" target="I-CdvSnA8jOuuN02367H-85" edge="1">
          <mxGeometry width="50" height="50" relative="1" as="geometry">
            <mxPoint x="1875" y="1570" as="sourcePoint" />
            <mxPoint x="1805" y="1350" as="targetPoint" />
          </mxGeometry>
        </mxCell>
        <mxCell id="I-CdvSnA8jOuuN02367H-60" value="" style="edgeStyle=orthogonalEdgeStyle;rounded=0;orthogonalLoop=1;jettySize=auto;html=1;endArrow=none;endFill=0;exitX=0.5;exitY=1;exitDx=0;exitDy=0;entryX=0.5;entryY=0;entryDx=0;entryDy=0;" parent="1" source="I-CdvSnA8jOuuN02367H-14" target="I-CdvSnA8jOuuN02367H-20" edge="1">
          <mxGeometry relative="1" as="geometry">
            <mxPoint x="400" y="1599" as="sourcePoint" />
            <mxPoint x="400" y="1619" as="targetPoint" />
          </mxGeometry>
        </mxCell>
        <mxCell id="I-CdvSnA8jOuuN02367H-61" value="" style="edgeStyle=orthogonalEdgeStyle;rounded=0;orthogonalLoop=1;jettySize=auto;html=1;endArrow=none;endFill=0;exitX=0.5;exitY=1;exitDx=0;exitDy=0;entryX=0.5;entryY=0;entryDx=0;entryDy=0;" parent="1" source="I-CdvSnA8jOuuN02367H-13" target="I-CdvSnA8jOuuN02367H-19" edge="1">
          <mxGeometry relative="1" as="geometry">
            <mxPoint x="210" y="1599" as="sourcePoint" />
            <mxPoint x="210" y="1619" as="targetPoint" />
          </mxGeometry>
        </mxCell>
        <mxCell id="I-CdvSnA8jOuuN02367H-62" value="" style="endArrow=none;html=1;rounded=0;entryX=1;entryY=0.5;entryDx=0;entryDy=0;exitX=0.5;exitY=0;exitDx=0;exitDy=0;" parent="1" source="I-CdvSnA8jOuuN02367H-13" target="I-CdvSnA8jOuuN02367H-113" edge="1">
          <mxGeometry width="50" height="50" relative="1" as="geometry">
            <mxPoint x="-10" y="1509" as="sourcePoint" />
            <mxPoint x="140" y="1499" as="targetPoint" />
          </mxGeometry>
        </mxCell>
        <mxCell id="I-CdvSnA8jOuuN02367H-63" value="" style="endArrow=none;html=1;rounded=0;entryX=1;entryY=0.5;entryDx=0;entryDy=0;exitX=0.5;exitY=0;exitDx=0;exitDy=0;" parent="1" source="I-CdvSnA8jOuuN02367H-14" target="I-CdvSnA8jOuuN02367H-113" edge="1">
          <mxGeometry width="50" height="50" relative="1" as="geometry">
            <mxPoint x="180" y="1559" as="sourcePoint" />
            <mxPoint x="140" y="1499" as="targetPoint" />
          </mxGeometry>
        </mxCell>
        <mxCell id="I-CdvSnA8jOuuN02367H-64" value="" style="endArrow=none;html=1;rounded=0;entryX=0.5;entryY=1;entryDx=0;entryDy=0;exitX=0;exitY=0.5;exitDx=0;exitDy=0;" parent="1" source="I-CdvSnA8jOuuN02367H-113" target="I-CdvSnA8jOuuN02367H-107" edge="1">
          <mxGeometry width="50" height="50" relative="1" as="geometry">
            <mxPoint x="120" y="1400.5" as="sourcePoint" />
            <mxPoint x="120" y="1370.5" as="targetPoint" />
          </mxGeometry>
        </mxCell>
        <mxCell id="I-CdvSnA8jOuuN02367H-65" value="" style="endArrow=none;html=1;rounded=0;entryX=0.5;entryY=1;entryDx=0;entryDy=0;exitX=0.5;exitY=0;exitDx=0;exitDy=0;" parent="1" source="I-CdvSnA8jOuuN02367H-107" target="I-CdvSnA8jOuuN02367H-6" edge="1">
          <mxGeometry width="50" height="50" relative="1" as="geometry">
            <mxPoint x="1275" y="1300" as="sourcePoint" />
            <mxPoint x="1295" y="1270" as="targetPoint" />
          </mxGeometry>
        </mxCell>
        <mxCell id="I-CdvSnA8jOuuN02367H-66" value="" style="endArrow=none;html=1;rounded=0;entryX=0.5;entryY=1;entryDx=0;entryDy=0;exitX=0.5;exitY=0;exitDx=0;exitDy=0;" parent="1" source="I-CdvSnA8jOuuN02367H-106" target="I-CdvSnA8jOuuN02367H-6" edge="1">
          <mxGeometry width="50" height="50" relative="1" as="geometry">
            <mxPoint x="955" y="1300" as="sourcePoint" />
            <mxPoint x="1315" y="1180" as="targetPoint" />
          </mxGeometry>
        </mxCell>
        <mxCell id="I-CdvSnA8jOuuN02367H-67" value="" style="endArrow=none;html=1;rounded=0;entryX=0.5;entryY=1;entryDx=0;entryDy=0;exitX=0;exitY=0.5;exitDx=0;exitDy=0;" parent="1" source="I-CdvSnA8jOuuN02367H-112" target="I-CdvSnA8jOuuN02367H-106" edge="1">
          <mxGeometry width="50" height="50" relative="1" as="geometry">
            <mxPoint x="600" y="1400" as="sourcePoint" />
            <mxPoint x="600" y="1370" as="targetPoint" />
          </mxGeometry>
        </mxCell>
        <mxCell id="I-CdvSnA8jOuuN02367H-68" value="" style="endArrow=none;html=1;rounded=0;entryX=1;entryY=0.5;entryDx=0;entryDy=0;exitX=0.5;exitY=0;exitDx=0;exitDy=0;" parent="1" source="I-CdvSnA8jOuuN02367H-10" target="I-CdvSnA8jOuuN02367H-112" edge="1">
          <mxGeometry width="50" height="50" relative="1" as="geometry">
            <mxPoint x="790" y="1469" as="sourcePoint" />
            <mxPoint x="690" y="1499" as="targetPoint" />
          </mxGeometry>
        </mxCell>
        <mxCell id="I-CdvSnA8jOuuN02367H-69" value="" style="endArrow=none;html=1;rounded=0;entryX=1;entryY=0.5;entryDx=0;entryDy=0;exitX=0.5;exitY=0;exitDx=0;exitDy=0;" parent="1" source="I-CdvSnA8jOuuN02367H-9" target="I-CdvSnA8jOuuN02367H-112" edge="1">
          <mxGeometry width="50" height="50" relative="1" as="geometry">
            <mxPoint x="870" y="1529" as="sourcePoint" />
            <mxPoint x="690" y="1499" as="targetPoint" />
          </mxGeometry>
        </mxCell>
        <mxCell id="I-CdvSnA8jOuuN02367H-70" value="" style="endArrow=none;html=1;rounded=0;entryX=0.5;entryY=1;entryDx=0;entryDy=0;exitX=0.5;exitY=0;exitDx=0;exitDy=0;" parent="1" source="I-CdvSnA8jOuuN02367H-18" target="I-CdvSnA8jOuuN02367H-10" edge="1">
          <mxGeometry width="50" height="50" relative="1" as="geometry">
            <mxPoint x="630" y="1549" as="sourcePoint" />
            <mxPoint x="700" y="1519" as="targetPoint" />
          </mxGeometry>
        </mxCell>
        <mxCell id="I-CdvSnA8jOuuN02367H-71" value="" style="endArrow=none;html=1;rounded=0;entryX=0.5;entryY=1;entryDx=0;entryDy=0;exitX=0.5;exitY=0;exitDx=0;exitDy=0;" parent="1" source="I-CdvSnA8jOuuN02367H-17" target="I-CdvSnA8jOuuN02367H-9" edge="1">
          <mxGeometry width="50" height="50" relative="1" as="geometry">
            <mxPoint x="730" y="1629" as="sourcePoint" />
            <mxPoint x="730" y="1609" as="targetPoint" />
          </mxGeometry>
        </mxCell>
        <mxCell id="I-CdvSnA8jOuuN02367H-72" value="" style="endArrow=none;html=1;rounded=0;entryX=0.5;entryY=1;entryDx=0;entryDy=0;exitX=0.5;exitY=0;exitDx=0;exitDy=0;" parent="1" source="I-CdvSnA8jOuuN02367H-105" target="I-CdvSnA8jOuuN02367H-6" edge="1">
          <mxGeometry width="50" height="50" relative="1" as="geometry">
            <mxPoint x="635" y="1300" as="sourcePoint" />
            <mxPoint x="865" y="1190" as="targetPoint" />
          </mxGeometry>
        </mxCell>
        <mxCell id="I-CdvSnA8jOuuN02367H-73" value="" style="endArrow=none;html=1;rounded=0;entryX=0.5;entryY=1;entryDx=0;entryDy=0;exitX=0;exitY=0.5;exitDx=0;exitDy=0;" parent="1" source="I-CdvSnA8jOuuN02367H-111" target="I-CdvSnA8jOuuN02367H-105" edge="1">
          <mxGeometry width="50" height="50" relative="1" as="geometry">
            <mxPoint x="360" y="1400" as="sourcePoint" />
            <mxPoint x="360" y="1370" as="targetPoint" />
          </mxGeometry>
        </mxCell>
        <mxCell id="I-CdvSnA8jOuuN02367H-74" value="" style="endArrow=none;html=1;rounded=0;entryX=1;entryY=0.5;entryDx=0;entryDy=0;exitX=0.5;exitY=0;exitDx=0;exitDy=0;" parent="1" source="I-CdvSnA8jOuuN02367H-12" target="I-CdvSnA8jOuuN02367H-111" edge="1">
          <mxGeometry width="50" height="50" relative="1" as="geometry">
            <mxPoint x="515" y="1459" as="sourcePoint" />
            <mxPoint x="415" y="1499" as="targetPoint" />
          </mxGeometry>
        </mxCell>
        <mxCell id="I-CdvSnA8jOuuN02367H-75" value="" style="endArrow=none;html=1;rounded=0;entryX=1;entryY=0.5;entryDx=0;entryDy=0;exitX=0.5;exitY=0;exitDx=0;exitDy=0;" parent="1" source="I-CdvSnA8jOuuN02367H-11" target="I-CdvSnA8jOuuN02367H-111" edge="1">
          <mxGeometry width="50" height="50" relative="1" as="geometry">
            <mxPoint x="515" y="1529" as="sourcePoint" />
            <mxPoint x="415" y="1499" as="targetPoint" />
          </mxGeometry>
        </mxCell>
        <mxCell id="I-CdvSnA8jOuuN02367H-76" value="" style="endArrow=none;html=1;rounded=0;entryX=0.5;entryY=1;entryDx=0;entryDy=0;exitX=0.5;exitY=0;exitDx=0;exitDy=0;" parent="1" source="I-CdvSnA8jOuuN02367H-16" target="I-CdvSnA8jOuuN02367H-12" edge="1">
          <mxGeometry width="50" height="50" relative="1" as="geometry">
            <mxPoint x="400" y="1539" as="sourcePoint" />
            <mxPoint x="400" y="1509" as="targetPoint" />
          </mxGeometry>
        </mxCell>
        <mxCell id="I-CdvSnA8jOuuN02367H-77" value="" style="endArrow=none;html=1;rounded=0;entryX=0.5;entryY=1;entryDx=0;entryDy=0;exitX=0.5;exitY=0;exitDx=0;exitDy=0;" parent="1" source="I-CdvSnA8jOuuN02367H-15" target="I-CdvSnA8jOuuN02367H-11" edge="1">
          <mxGeometry width="50" height="50" relative="1" as="geometry">
            <mxPoint x="450" y="1619" as="sourcePoint" />
            <mxPoint x="450" y="1599" as="targetPoint" />
          </mxGeometry>
        </mxCell>
        <mxCell id="I-CdvSnA8jOuuN02367H-78" value="" style="endArrow=none;html=1;rounded=0;entryX=0.5;entryY=1;entryDx=0;entryDy=0;exitX=0.5;exitY=0;exitDx=0;exitDy=0;" parent="1" source="I-CdvSnA8jOuuN02367H-104" target="I-CdvSnA8jOuuN02367H-6" edge="1">
          <mxGeometry width="50" height="50" relative="1" as="geometry">
            <mxPoint x="245" y="1300" as="sourcePoint" />
            <mxPoint x="705" y="1420" as="targetPoint" />
          </mxGeometry>
        </mxCell>
        <mxCell id="I-CdvSnA8jOuuN02367H-79" value="" style="endArrow=none;html=1;rounded=0;entryX=0.5;entryY=1;entryDx=0;entryDy=0;exitX=0;exitY=0.5;exitDx=0;exitDy=0;" parent="1" source="I-CdvSnA8jOuuN02367H-110" target="I-CdvSnA8jOuuN02367H-104" edge="1">
          <mxGeometry width="50" height="50" relative="1" as="geometry">
            <mxPoint x="900" y="1400" as="sourcePoint" />
            <mxPoint x="900" y="1370" as="targetPoint" />
          </mxGeometry>
        </mxCell>
        <mxCell id="I-CdvSnA8jOuuN02367H-80" value="" style="endArrow=none;html=1;rounded=0;entryX=1;entryY=0.5;entryDx=0;entryDy=0;exitX=0.5;exitY=0;exitDx=0;exitDy=0;" parent="1" source="I-CdvSnA8jOuuN02367H-23" target="I-CdvSnA8jOuuN02367H-110" edge="1">
          <mxGeometry width="50" height="50" relative="1" as="geometry">
            <mxPoint x="1180" y="1459.5" as="sourcePoint" />
            <mxPoint x="1030" y="1499.5" as="targetPoint" />
          </mxGeometry>
        </mxCell>
        <mxCell id="I-CdvSnA8jOuuN02367H-81" value="" style="endArrow=none;html=1;rounded=0;entryX=1;entryY=0.5;entryDx=0;entryDy=0;exitX=0.5;exitY=0;exitDx=0;exitDy=0;" parent="1" source="I-CdvSnA8jOuuN02367H-22" target="I-CdvSnA8jOuuN02367H-110" edge="1">
          <mxGeometry width="50" height="50" relative="1" as="geometry">
            <mxPoint x="1340" y="1519.5" as="sourcePoint" />
            <mxPoint x="1030" y="1499.5" as="targetPoint" />
          </mxGeometry>
        </mxCell>
        <mxCell id="I-CdvSnA8jOuuN02367H-82" value="" style="endArrow=none;html=1;rounded=0;exitX=0.5;exitY=0;exitDx=0;exitDy=0;entryX=1;entryY=0.5;entryDx=0;entryDy=0;" parent="1" source="I-CdvSnA8jOuuN02367H-21" target="I-CdvSnA8jOuuN02367H-110" edge="1">
          <mxGeometry width="50" height="50" relative="1" as="geometry">
            <mxPoint x="1180" y="1529.5" as="sourcePoint" />
            <mxPoint x="1030" y="1480.5" as="targetPoint" />
          </mxGeometry>
        </mxCell>
        <mxCell id="I-CdvSnA8jOuuN02367H-83" value="Default Branch" style="ellipse;whiteSpace=wrap;html=1;" parent="1" vertex="1">
          <mxGeometry x="2845" y="1090" width="120" height="80" as="geometry" />
        </mxCell>
        <mxCell id="I-CdvSnA8jOuuN02367H-84" value="Privileged Groups" style="rounded=0;whiteSpace=wrap;html=1;" parent="1" vertex="1">
          <mxGeometry x="1937" y="1519" width="100" height="50" as="geometry" />
        </mxCell>
        <mxCell id="I-CdvSnA8jOuuN02367H-85" value="Accounts Branch" style="ellipse;whiteSpace=wrap;html=1;" parent="1" vertex="1">
          <mxGeometry x="1595" y="1190" width="120" height="80" as="geometry" />
        </mxCell>
        <mxCell id="I-CdvSnA8jOuuN02367H-86" value="Groups Branch" style="ellipse;whiteSpace=wrap;html=1;" parent="1" vertex="1">
          <mxGeometry x="2015" y="1190" width="120" height="80" as="geometry" />
        </mxCell>
        <mxCell id="I-CdvSnA8jOuuN02367H-87" value="" style="endArrow=none;html=1;rounded=0;exitX=0.5;exitY=0;exitDx=0;exitDy=0;entryX=0.5;entryY=1;entryDx=0;entryDy=0;" parent="1" source="I-CdvSnA8jOuuN02367H-84" target="I-CdvSnA8jOuuN02367H-86" edge="1">
          <mxGeometry width="50" height="50" relative="1" as="geometry">
            <mxPoint x="2085" y="1460" as="sourcePoint" />
            <mxPoint x="1875" y="1350" as="targetPoint" />
          </mxGeometry>
        </mxCell>
        <mxCell id="I-CdvSnA8jOuuN02367H-88" value="" style="endArrow=none;html=1;rounded=0;exitX=0.5;exitY=0;exitDx=0;exitDy=0;entryX=0.5;entryY=1;entryDx=0;entryDy=0;" parent="1" source="I-CdvSnA8jOuuN02367H-86" target="I-CdvSnA8jOuuN02367H-7" edge="1">
          <mxGeometry width="50" height="50" relative="1" as="geometry">
            <mxPoint x="2025" y="1420" as="sourcePoint" />
            <mxPoint x="2025" y="1310" as="targetPoint" />
          </mxGeometry>
        </mxCell>
        <mxCell id="I-CdvSnA8jOuuN02367H-89" value="" style="endArrow=none;html=1;rounded=0;exitX=0.5;exitY=1;exitDx=0;exitDy=0;entryX=0.5;entryY=0;entryDx=0;entryDy=0;" parent="1" source="I-CdvSnA8jOuuN02367H-7" target="I-CdvSnA8jOuuN02367H-85" edge="1">
          <mxGeometry width="50" height="50" relative="1" as="geometry">
            <mxPoint x="2245" y="1210" as="sourcePoint" />
            <mxPoint x="2075" y="1200" as="targetPoint" />
          </mxGeometry>
        </mxCell>
        <mxCell id="I-CdvSnA8jOuuN02367H-90" value="" style="endArrow=none;html=1;rounded=0;exitX=0.5;exitY=0;exitDx=0;exitDy=0;entryX=0.5;entryY=1;entryDx=0;entryDy=0;" parent="1" source="I-CdvSnA8jOuuN02367H-83" target="I-CdvSnA8jOuuN02367H-4" edge="1">
          <mxGeometry width="50" height="50" relative="1" as="geometry">
            <mxPoint x="1360" y="1170" as="sourcePoint" />
            <mxPoint x="2730" y="1010" as="targetPoint" />
          </mxGeometry>
        </mxCell>
        <mxCell id="I-CdvSnA8jOuuN02367H-91" value="" style="endArrow=none;html=1;rounded=0;exitX=0.5;exitY=1;exitDx=0;exitDy=0;entryX=0.5;entryY=0;entryDx=0;entryDy=0;" parent="1" source="I-CdvSnA8jOuuN02367H-83" target="I-CdvSnA8jOuuN02367H-103" edge="1">
          <mxGeometry width="50" height="50" relative="1" as="geometry">
            <mxPoint x="3195" y="1200" as="sourcePoint" />
            <mxPoint x="2905" y="1300" as="targetPoint" />
          </mxGeometry>
        </mxCell>
        <mxCell id="I-CdvSnA8jOuuN02367H-92" value="" style="endArrow=none;html=1;rounded=0;exitX=0.5;exitY=1;exitDx=0;exitDy=0;entryX=0;entryY=0.5;entryDx=0;entryDy=0;" parent="1" source="I-CdvSnA8jOuuN02367H-103" target="I-CdvSnA8jOuuN02367H-109" edge="1">
          <mxGeometry width="50" height="50" relative="1" as="geometry">
            <mxPoint x="2905" y="1360" as="sourcePoint" />
            <mxPoint x="2905" y="1390" as="targetPoint" />
          </mxGeometry>
        </mxCell>
        <mxCell id="I-CdvSnA8jOuuN02367H-93" value="Access Groups" style="rounded=0;whiteSpace=wrap;html=1;" parent="1" vertex="1">
          <mxGeometry x="2077" y="1519" width="100" height="50" as="geometry" />
        </mxCell>
        <mxCell id="I-CdvSnA8jOuuN02367H-94" value="" style="endArrow=none;html=1;rounded=0;exitX=0.5;exitY=0;exitDx=0;exitDy=0;entryX=0.5;entryY=1;entryDx=0;entryDy=0;" parent="1" source="I-CdvSnA8jOuuN02367H-93" target="I-CdvSnA8jOuuN02367H-86" edge="1">
          <mxGeometry width="50" height="50" relative="1" as="geometry">
            <mxPoint x="2125" y="1590" as="sourcePoint" />
            <mxPoint x="2125" y="1380" as="targetPoint" />
          </mxGeometry>
        </mxCell>
        <mxCell id="I-CdvSnA8jOuuN02367H-95" value="* Default Branch objects managed via exceptions for inflexible components" style="text;html=1;align=center;verticalAlign=middle;whiteSpace=wrap;rounded=0;" parent="1" vertex="1">
          <mxGeometry x="2905" y="1170" width="210" height="40" as="geometry" />
        </mxCell>
        <mxCell id="I-CdvSnA8jOuuN02367H-103" value="Domain Controllers" style="shape=hexagon;perimeter=hexagonPerimeter2;whiteSpace=wrap;html=1;fixedSize=1;" parent="1" vertex="1">
          <mxGeometry x="2845" y="1280" width="120" height="80" as="geometry" />
        </mxCell>
        <mxCell id="I-CdvSnA8jOuuN02367H-104" value="Staging" style="shape=hexagon;perimeter=hexagonPerimeter2;whiteSpace=wrap;html=1;fixedSize=1;" parent="1" vertex="1">
          <mxGeometry x="840" y="1290" width="120" height="80" as="geometry" />
        </mxCell>
        <mxCell id="I-CdvSnA8jOuuN02367H-105" value="Workstations" style="shape=hexagon;perimeter=hexagonPerimeter2;whiteSpace=wrap;html=1;fixedSize=1;" parent="1" vertex="1">
          <mxGeometry x="300" y="1290" width="120" height="80" as="geometry" />
        </mxCell>
        <mxCell id="I-CdvSnA8jOuuN02367H-106" value="Servers" style="shape=hexagon;perimeter=hexagonPerimeter2;whiteSpace=wrap;html=1;fixedSize=1;" parent="1" vertex="1">
          <mxGeometry x="540" y="1290" width="120" height="80" as="geometry" />
        </mxCell>
        <mxCell id="I-CdvSnA8jOuuN02367H-107" value="Network" style="shape=hexagon;perimeter=hexagonPerimeter2;whiteSpace=wrap;html=1;fixedSize=1;" parent="1" vertex="1">
          <mxGeometry x="60" y="1290.5" width="120" height="80" as="geometry" />
        </mxCell>
        <mxCell id="I-CdvSnA8jOuuN02367H-109" value="&amp;lt;Zone&amp;gt;" style="ellipse;whiteSpace=wrap;html=1;aspect=fixed;direction=south;" parent="1" vertex="1">
          <mxGeometry x="2865" y="1390" width="80" height="80" as="geometry" />
        </mxCell>
        <mxCell id="I-CdvSnA8jOuuN02367H-110" value="&amp;lt;Zone&amp;gt;" style="ellipse;whiteSpace=wrap;html=1;aspect=fixed;direction=south;" parent="1" vertex="1">
          <mxGeometry x="860" y="1400" width="80" height="80" as="geometry" />
        </mxCell>
        <mxCell id="I-CdvSnA8jOuuN02367H-111" value="&amp;lt;Zone&amp;gt;" style="ellipse;whiteSpace=wrap;html=1;aspect=fixed;direction=south;" parent="1" vertex="1">
          <mxGeometry x="320" y="1400" width="80" height="80" as="geometry" />
        </mxCell>
        <mxCell id="I-CdvSnA8jOuuN02367H-112" value="&amp;lt;Zone&amp;gt;" style="ellipse;whiteSpace=wrap;html=1;aspect=fixed;direction=south;" parent="1" vertex="1">
          <mxGeometry x="560" y="1400" width="80" height="80" as="geometry" />
        </mxCell>
        <mxCell id="I-CdvSnA8jOuuN02367H-113" value="&amp;lt;Zone&amp;gt;" style="ellipse;whiteSpace=wrap;html=1;aspect=fixed;direction=south;" parent="1" vertex="1">
          <mxGeometry x="80" y="1400.5" width="80" height="80" as="geometry" />
        </mxCell>
        <mxCell id="I-CdvSnA8jOuuN02367H-114" value="&amp;lt;Zone&amp;gt;" style="ellipse;whiteSpace=wrap;html=1;aspect=fixed;direction=south;" parent="1" vertex="1">
          <mxGeometry x="2570" y="1390" width="80" height="80" as="geometry" />
        </mxCell>
        <mxCell id="WMdcypEWE5nW1jk3AL-A-2" value="" style="group" parent="1" vertex="1" connectable="0">
          <mxGeometry x="350" y="890" width="680" height="110" as="geometry" />
        </mxCell>
        <mxCell id="I-CdvSnA8jOuuN02367H-1" value="Hierarchical Model" style="rounded=0;align=left;labelPosition=center;verticalLabelPosition=middle;verticalAlign=top;whiteSpace=wrap;html=1;convertToSvg=0;container=0;" parent="WMdcypEWE5nW1jk3AL-A-2" vertex="1">
          <mxGeometry width="680" height="110" as="geometry" />
        </mxCell>
        <mxCell id="I-CdvSnA8jOuuN02367H-96" value="Forest/Domain" style="rounded=1;whiteSpace=wrap;html=1;container=0;" parent="WMdcypEWE5nW1jk3AL-A-2" vertex="1">
          <mxGeometry x="34.60674157303367" y="29" width="103.82022471910112" height="60" as="geometry" />
        </mxCell>
        <mxCell id="I-CdvSnA8jOuuN02367H-97" value="Conceptual Mapping" style="ellipse;whiteSpace=wrap;html=1;container=0;" parent="WMdcypEWE5nW1jk3AL-A-2" vertex="1">
          <mxGeometry x="171.3033707865169" y="19" width="103.82022471910112" height="80" as="geometry" />
        </mxCell>
        <mxCell id="I-CdvSnA8jOuuN02367H-98" value="Type(s)" style="rounded=0;whiteSpace=wrap;html=1;container=0;" parent="WMdcypEWE5nW1jk3AL-A-2" vertex="1">
          <mxGeometry x="551.9775280898875" y="29" width="103.82022471910112" height="60" as="geometry" />
        </mxCell>
        <mxCell id="I-CdvSnA8jOuuN02367H-99" value="" style="endArrow=classic;html=1;rounded=0;exitX=1;exitY=0.5;exitDx=0;exitDy=0;entryX=0;entryY=0.5;entryDx=0;entryDy=0;" parent="WMdcypEWE5nW1jk3AL-A-2" source="I-CdvSnA8jOuuN02367H-96" target="I-CdvSnA8jOuuN02367H-97" edge="1">
          <mxGeometry width="50" height="50" relative="1" as="geometry">
            <mxPoint x="865.1685393258426" y="-481" as="sourcePoint" />
            <mxPoint x="908.4269662921347" y="-531" as="targetPoint" />
          </mxGeometry>
        </mxCell>
        <mxCell id="I-CdvSnA8jOuuN02367H-100" value="" style="endArrow=classic;html=1;rounded=0;exitX=1;exitY=0.5;exitDx=0;exitDy=0;entryX=0;entryY=0.5;entryDx=0;entryDy=0;" parent="WMdcypEWE5nW1jk3AL-A-2" source="I-CdvSnA8jOuuN02367H-97" target="I-CdvSnA8jOuuN02367H-108" edge="1">
          <mxGeometry width="50" height="50" relative="1" as="geometry">
            <mxPoint x="372.02247191011236" y="49" as="sourcePoint" />
            <mxPoint x="346.0674157303371" y="59" as="targetPoint" />
          </mxGeometry>
        </mxCell>
        <mxCell id="I-CdvSnA8jOuuN02367H-101" value="" style="endArrow=classic;html=1;rounded=0;exitX=1;exitY=0.5;exitDx=0;exitDy=0;entryX=0.5;entryY=1;entryDx=0;entryDy=0;" parent="WMdcypEWE5nW1jk3AL-A-2" source="I-CdvSnA8jOuuN02367H-108" target="I-CdvSnA8jOuuN02367H-115" edge="1">
          <mxGeometry width="50" height="50" relative="1" as="geometry">
            <mxPoint x="449.8876404494382" y="59" as="sourcePoint" />
            <mxPoint x="493.1460674157304" y="59" as="targetPoint" />
          </mxGeometry>
        </mxCell>
        <mxCell id="I-CdvSnA8jOuuN02367H-102" value="" style="endArrow=classic;html=1;rounded=0;exitX=0.5;exitY=0;exitDx=0;exitDy=0;entryX=0;entryY=0.5;entryDx=0;entryDy=0;" parent="WMdcypEWE5nW1jk3AL-A-2" source="I-CdvSnA8jOuuN02367H-115" target="I-CdvSnA8jOuuN02367H-98" edge="1">
          <mxGeometry width="50" height="50" relative="1" as="geometry">
            <mxPoint x="596.9662921348315" y="59" as="sourcePoint" />
            <mxPoint x="657.5280898876404" y="49" as="targetPoint" />
          </mxGeometry>
        </mxCell>
        <mxCell id="I-CdvSnA8jOuuN02367H-108" value="Role" style="shape=hexagon;perimeter=hexagonPerimeter2;whiteSpace=wrap;html=1;fixedSize=1;container=0;" parent="WMdcypEWE5nW1jk3AL-A-2" vertex="1">
          <mxGeometry x="305.40449438202245" y="19" width="103.82022471910112" height="80" as="geometry" />
        </mxCell>
        <mxCell id="I-CdvSnA8jOuuN02367H-115" value="Zone" style="ellipse;whiteSpace=wrap;html=1;aspect=fixed;direction=south;container=0;" parent="WMdcypEWE5nW1jk3AL-A-2" vertex="1">
          <mxGeometry x="449.02247191011236" y="24.389999999999986" width="69.21348314606742" height="69.21348314606742" as="geometry" />
        </mxCell>
      </root>
    </mxGraphModel>
  </diagram>
</mxfile>
